<svg width="72" height="26" viewBox="0 0 72 26" fill="none" xmlns="http://www.w3.org/2000/svg">
<path fill-rule="evenodd" clip-rule="evenodd" d="M64.402 8.89148C64.8279 8.87966 65.2657 8.86191 65.6851 8.9447C65.8555 8.97424 66.0683 9.08066 66.05 9.28166C66.0562 10.9784 66.044 12.6692 66.0562 14.3659C66.0683 14.8684 66.1534 15.4064 66.4999 15.7966C66.9196 16.2577 67.6736 16.3169 68.2087 16.0213C68.7013 15.7434 69.0964 15.3355 69.4553 14.9098C69.4856 13.018 69.4553 11.1203 69.4735 9.22255C69.4918 9.01562 69.7411 8.95651 69.9174 8.92695C70.4222 8.86191 70.9391 8.86191 71.4436 8.92695C71.6443 8.95061 71.9302 9.03928 71.9119 9.28166C71.9119 12.1017 71.9119 14.9157 71.9119 17.7357C71.9302 17.9249 71.7356 18.0372 71.5654 18.0668C71.1276 18.1495 70.6653 18.1436 70.2215 18.0845C70.0511 18.055 69.8262 17.9899 69.808 17.7948C69.7959 17.4697 69.808 17.1504 69.808 16.8253C69.7959 16.8253 69.7716 16.8194 69.7594 16.8135C69.0721 17.5229 68.2027 18.1436 67.181 18.2619C66.4332 18.3328 65.6305 18.2501 64.9859 17.8539C64.4995 17.5643 64.1346 17.1031 63.9156 16.5947C63.6663 16.0035 63.6056 15.3591 63.5872 14.7266C63.5812 12.9352 63.5872 11.1439 63.5812 9.3467C63.5751 9.23437 63.5934 9.09841 63.709 9.03928C63.9218 8.91513 64.1711 8.90922 64.402 8.89148ZM60.5529 9.15161C61.0515 8.87375 61.6718 8.87373 62.213 9.02153C62.3651 9.06291 62.5536 9.12204 62.5961 9.2935C62.6752 9.57726 62.6568 9.87286 62.669 10.1685C62.663 10.5232 62.6813 10.8897 62.5596 11.2326C62.4988 11.3981 62.2798 11.3981 62.1339 11.339C61.7388 11.203 61.2948 11.0789 60.8935 11.2622C60.3584 11.5046 59.9996 11.9893 59.6712 12.4446C59.6104 12.545 59.507 12.6337 59.5253 12.7638C59.5253 14.4783 59.5253 16.1927 59.5253 17.9131C59.5496 18.0609 59.428 18.185 59.2941 18.2265C58.9962 18.321 58.674 18.321 58.3638 18.3328C58.0112 18.3268 57.6524 18.3328 57.3118 18.2323C57.1659 18.191 57.0444 18.0668 57.0687 17.9131C57.0687 15.0931 57.0687 12.279 57.0687 9.45902C57.0565 9.26984 57.2572 9.17526 57.4214 9.1457C57.8349 9.06884 58.2605 9.08066 58.674 9.11613C58.8625 9.13979 59.1118 9.19299 59.1604 9.3999C59.1788 9.76644 59.1604 10.133 59.1664 10.5054C59.5679 9.99701 59.9753 9.47084 60.5529 9.15161ZM53.5052 15.5069C54.0039 15.436 54.539 15.4182 55.0072 15.6133C55.3964 15.7848 55.4877 16.24 55.518 16.6125C55.5363 17.0499 55.5423 17.517 55.3356 17.919C55.1471 18.2619 54.7153 18.3506 54.3505 18.3801C53.9127 18.3979 53.4322 18.4037 53.0431 18.1732C52.7208 17.9604 52.66 17.5406 52.6296 17.1918C52.6114 16.7721 52.6114 16.3228 52.8059 15.9326C52.9398 15.6784 53.2316 15.5542 53.5052 15.5069Z" fill="#E31E24"/>
<path fill-rule="evenodd" clip-rule="evenodd" d="M35.0073 5.14934C34.825 5.18482 34.5879 5.23211 34.5331 5.43903C34.5088 5.71689 34.5331 5.99474 34.5271 6.26671C34.5271 10.1686 34.5271 14.0704 34.5271 17.9723C34.5088 18.0965 34.5938 18.2206 34.7094 18.262C34.977 18.3684 35.275 18.3744 35.5607 18.3862C35.9499 18.3862 36.3452 18.398 36.7222 18.2915C36.8743 18.256 37.014 18.1319 36.9897 17.9723C36.9897 16.4943 36.9958 15.0163 36.9897 13.5325C38.0052 15.0459 38.9782 16.5889 39.9815 18.1142C40.1395 18.3151 40.4255 18.3329 40.6686 18.3626C41.1369 18.398 41.6111 18.398 42.0732 18.3508C42.2496 18.3211 42.4624 18.3151 42.5842 18.1733C42.7119 17.9309 42.5415 17.6649 42.42 17.458C41.4348 15.9682 40.4498 14.4843 39.4586 13.0004C40.2916 12.0604 41.149 11.1322 41.9882 10.1981C42.1645 9.99122 42.3287 9.737 42.2922 9.45914C42.2496 9.28769 42.0489 9.23449 41.8969 9.20492C41.4531 9.12807 40.997 9.13989 40.5532 9.15763C40.2491 9.18129 39.9024 9.20492 39.6896 9.43549C38.7835 10.5942 37.9019 11.7825 36.9958 12.9413C37.0018 10.4583 37.0018 7.97525 36.9958 5.49223C36.9897 5.23802 36.6979 5.173 36.4911 5.14344C35.9925 5.07249 35.4939 5.07249 35.0073 5.14934ZM20.2066 6.9584C20.0302 6.98796 19.7809 7.05891 19.7566 7.26582C19.7385 7.91022 19.7628 8.56052 19.7445 9.20492C19.3796 9.20492 19.0209 9.19311 18.656 9.20492C18.4675 9.22858 18.4006 9.42367 18.3702 9.57738C18.3094 9.96756 18.3033 10.3637 18.3702 10.7539C18.4067 10.9194 18.4979 11.144 18.7106 11.1381C19.0512 11.144 19.3979 11.144 19.7385 11.1322C19.7628 12.3442 19.7445 13.562 19.7506 14.774C19.7506 15.643 19.708 16.5594 20.1276 17.3516C20.4194 17.9191 21.0092 18.2915 21.6417 18.4217C22.3593 18.5635 23.1133 18.5517 23.8187 18.3566C24.0497 18.2915 24.3233 18.1911 24.3964 17.9428C24.5239 17.5289 24.5058 17.0914 24.4572 16.6658C24.4267 16.5298 24.4267 16.317 24.2503 16.2874C24.0132 16.2992 23.8126 16.4411 23.5814 16.4707C23.2167 16.5298 22.7606 16.5298 22.493 16.2342C22.2437 15.9209 22.2072 15.5011 22.2011 15.1228C22.2011 13.7926 22.1951 12.4565 22.2072 11.1263C22.8578 11.1263 23.5085 11.1381 24.1591 11.1263C24.4267 11.0613 24.451 10.7361 24.4753 10.5115C24.4937 10.1567 24.5118 9.7902 24.4145 9.44731C24.3781 9.31725 24.2747 9.1872 24.1226 9.19311C23.4842 9.1872 22.8397 9.19311 22.2011 9.1872C22.2011 8.5428 22.2072 7.90431 22.1951 7.25991C22.1708 7.02934 21.8972 6.97022 21.7025 6.93474C21.2161 6.89336 20.7053 6.89336 20.2066 6.9584ZM1.27089 9.58329C1.02766 9.70152 0.760099 9.82569 0.608078 10.0563C0.456057 10.2986 0.48038 10.6001 0.486462 10.878C0.510785 11.1322 0.535108 11.4396 0.760099 11.6111C0.960766 11.7175 1.18576 11.5933 1.36818 11.5047C2.14654 11.1086 2.99786 10.7834 3.89174 10.8071C4.38428 10.8071 4.97412 10.8662 5.28424 11.2918C5.61869 11.7589 5.5518 12.3619 5.55788 12.9058C4.66399 12.9058 3.76403 12.894 2.87624 13.0418C2.031 13.1837 1.14927 13.4674 0.577674 14.1177C0.0668833 14.6853 -0.0608129 15.4834 0.024319 16.2106C0.0912081 16.8963 0.456057 17.5644 1.03982 17.9664C1.81816 18.5102 2.83366 18.6286 3.76403 18.5102C4.60319 18.4098 5.35113 17.9546 5.94097 17.3811C5.94097 17.6176 5.92882 17.86 5.94705 18.0965C5.9653 18.2975 6.20245 18.3448 6.37271 18.3684C6.78014 18.4038 7.18754 18.4098 7.59497 18.3566C7.76523 18.3329 7.99022 18.2442 7.97805 18.0373C7.98415 16.1041 7.97805 14.1709 7.97805 12.2437C7.95982 11.5106 7.85036 10.742 7.40038 10.1331C6.96255 9.54782 6.24502 9.2404 5.53356 9.11034C4.09848 8.85022 2.59043 8.99211 1.27089 9.58329ZM3.00393 14.6853C2.35936 14.9927 2.21343 15.9091 2.64517 16.4411C2.98568 16.8431 3.57552 16.9023 4.07415 16.8195C4.68224 16.7072 5.15047 16.2756 5.5518 15.844C5.5518 15.3592 5.5518 14.8804 5.5518 14.3956C4.70048 14.4252 3.79444 14.301 3.00393 14.6853ZM13.919 9.06896C12.9887 9.26405 12.2468 9.8848 11.5901 10.5174C11.584 10.1686 11.6022 9.81385 11.584 9.45914C11.5536 9.27587 11.3408 9.21674 11.1827 9.1872C10.7631 9.12807 10.3313 9.12807 9.91176 9.1872C9.73543 9.21083 9.50436 9.31134 9.51043 9.51825C9.50436 13.4615 9.51043 17.3988 9.51043 21.342C9.49826 21.4722 9.58948 21.5964 9.7111 21.6495C10.003 21.7678 10.3253 21.7737 10.6354 21.7797C10.9942 21.7797 11.3651 21.7855 11.7117 21.6731C11.8576 21.6318 11.9914 21.5017 11.9732 21.342C11.9792 20.0237 11.9671 18.6995 11.9792 17.3811C12.5326 17.9132 13.1954 18.4038 13.9859 18.5102C14.9467 18.6344 15.9865 18.4275 16.7405 17.8127C17.5493 17.1683 17.9628 16.1751 18.1513 15.1937C18.352 14.0704 18.3398 12.8999 18.0783 11.7825C17.8716 10.9194 17.4338 10.0681 16.6858 9.54191C15.8953 8.98027 14.8494 8.88569 13.919 9.06896ZM13.4022 11.144C12.8549 11.3628 12.4535 11.7943 12.0887 12.2318C12.034 12.3028 11.9488 12.3678 11.9671 12.4683C11.9671 13.3728 11.9671 14.2833 11.9671 15.1878C12.3076 15.5898 12.6603 15.9859 13.1103 16.2697C13.5116 16.5298 14.0467 16.5889 14.4967 16.4057C14.9345 16.2224 15.2386 15.8263 15.4149 15.4065C15.7555 14.6084 15.7615 13.7157 15.6521 12.8762C15.573 12.3205 15.3845 11.7352 14.9406 11.351C14.5393 10.9844 13.9069 10.943 13.4022 11.144ZM26.026 10.2927C25.2658 11.1322 24.9374 12.2614 24.8707 13.361C24.822 14.2833 24.8828 15.2292 25.205 16.1101C25.4727 16.8491 25.9896 17.5112 26.6888 17.9132C27.5827 18.4335 28.6468 18.5577 29.6685 18.5458C30.4468 18.534 31.2252 18.4157 31.979 18.2148C32.2528 18.1319 32.5264 18.0551 32.7697 17.9073C32.9764 17.7595 32.9885 17.4934 33.0007 17.2688C33.0069 16.985 33.025 16.6953 32.9704 16.4116C32.9521 16.2815 32.8486 16.1514 32.7028 16.1692C32.4595 16.1751 32.2467 16.2933 32.0217 16.3643C31.1521 16.6658 30.2217 16.8136 29.2975 16.7308C28.7503 16.6776 28.1786 16.4707 27.832 16.0332C27.455 15.5721 27.3578 14.9572 27.3516 14.3838C29.1151 14.3838 30.8785 14.3838 32.642 14.3838C32.8243 14.3838 33.019 14.3483 33.1589 14.2242C33.3229 14.0882 33.3899 13.8753 33.4082 13.6684C33.4385 12.9472 33.402 12.22 33.1892 11.5283C32.9582 10.7243 32.4352 9.99122 31.6933 9.56556C30.8541 9.05712 29.8387 8.95071 28.8718 9.00983C27.8015 9.06303 26.7374 9.50052 26.026 10.2927ZM27.8015 11.3687C27.4915 11.7943 27.3821 12.3205 27.3516 12.8289C28.5799 12.8289 29.8022 12.8289 31.0305 12.8289C31.0488 12.2437 30.9514 11.6052 30.5319 11.15C30.1671 10.7539 29.5832 10.6415 29.0543 10.6829C28.5617 10.7125 28.0875 10.9726 27.8015 11.3687ZM44.384 9.40592C44.0374 9.536 43.6788 9.67196 43.405 9.92027C43.1375 10.1686 43.1618 10.5529 43.174 10.8839C43.1921 11.1263 43.2226 11.4042 43.4111 11.5874C43.5935 11.7293 43.8428 11.6111 44.0191 11.5224C44.8096 11.1204 45.6671 10.7834 46.5732 10.8071C47.0596 10.8071 47.6251 10.8603 47.9473 11.2623C48.3062 11.7293 48.2393 12.3501 48.2454 12.9058C46.9075 12.9058 45.5029 12.8762 44.2503 13.4142C43.6788 13.6625 43.1678 14.0882 42.9185 14.6557C42.6693 15.2115 42.6449 15.844 42.7543 16.4352C42.8638 17.0382 43.2165 17.5999 43.7274 17.9605C44.2686 18.3448 44.9374 18.5102 45.5941 18.5458C46.3117 18.5871 47.0474 18.4629 47.6737 18.1024C48.0326 17.9132 48.3365 17.6472 48.6284 17.3752C48.6284 17.6117 48.6163 17.8541 48.6346 18.0906C48.6527 18.2975 48.896 18.3448 49.0662 18.3684C49.4676 18.4038 49.881 18.4098 50.2824 18.3566C50.4527 18.3329 50.6777 18.2442 50.6656 18.0373C50.6715 16.1041 50.6656 14.1709 50.6656 12.2437C50.6472 11.5165 50.5378 10.742 50.0879 10.1331C49.6501 9.54782 48.9325 9.2404 48.2211 9.11034C46.938 8.87385 45.6001 8.96845 44.384 9.40592ZM46.3785 14.4665C45.9225 14.5434 45.4178 14.7326 45.205 15.1641C44.9921 15.6312 45.0529 16.2697 45.4907 16.5889C45.8677 16.8727 46.3906 16.8904 46.8346 16.7958C47.4063 16.6599 47.8501 16.2519 48.2333 15.8381C48.2333 15.3533 48.2333 14.8745 48.2333 14.3897C47.6191 14.4074 46.9928 14.366 46.3785 14.4665Z" fill="#0B64A8"/>
</svg>
