<svg width="64" height="64" viewBox="0 0 64 64" fill="none" xmlns="http://www.w3.org/2000/svg">
<circle cx="32" cy="32" r="31.5" fill="white" stroke="#F6F9FC"/>
<path d="M29.1997 37.16C28.933 37.16 28.693 37.0667 28.4797 36.88C28.293 36.6667 28.1997 36.4267 28.1997 36.16V19C28.1997 18.7067 28.293 18.4667 28.4797 18.28C28.693 18.0933 28.933 18 29.1997 18H33.7997C34.093 18 34.333 18.0933 34.5197 18.28C34.7064 18.4667 34.7997 18.7067 34.7997 19V36.16C34.7997 36.4267 34.7064 36.6667 34.5197 36.88C34.333 37.0667 34.093 37.16 33.7997 37.16H29.1997ZM29.0397 46C28.7464 46 28.5064 45.9067 28.3197 45.72C28.133 45.5333 28.0397 45.2933 28.0397 45V40.08C28.0397 39.7867 28.133 39.5467 28.3197 39.36C28.5064 39.1467 28.7464 39.04 29.0397 39.04H33.9597C34.2264 39.04 34.453 39.1467 34.6397 39.36C34.853 39.5467 34.9597 39.7867 34.9597 40.08V45C34.9597 45.2667 34.8664 45.5067 34.6797 45.72C34.493 45.9067 34.253 46 33.9597 46H29.0397Z" fill="#FF8724"/>
<g filter="url(#filter0_d)">
<circle r="20" transform="matrix(-1 0 0 1 32 32)" fill="#AAE5F6"/>
</g>
<path d="M32 42C29.8783 42 27.8434 41.1571 26.3431 39.6569C24.8429 38.1566 24 36.1217 24 34C24 30.498 26.71 27.697 29.093 25.13L32 22L34.907 25.13C37.29 27.698 40 30.499 40 34C40 36.1217 39.1571 38.1566 37.6569 39.6569C36.1566 41.1571 34.1217 42 32 42V42Z" stroke="white" stroke-width="2" stroke-linecap="round" stroke-linejoin="round"/>
<defs>
<filter id="filter0_d" x="8" y="12" width="48" height="48" filterUnits="userSpaceOnUse" color-interpolation-filters="sRGB">
<feFlood flood-opacity="0" result="BackgroundImageFix"/>
<feColorMatrix in="SourceAlpha" type="matrix" values="0 0 0 0 0 0 0 0 0 0 0 0 0 0 0 0 0 0 127 0" result="hardAlpha"/>
<feOffset dy="4"/>
<feGaussianBlur stdDeviation="2"/>
<feComposite in2="hardAlpha" operator="out"/>
<feColorMatrix type="matrix" values="0 0 0 0 0.392157 0 0 0 0 0.360784 0 0 0 0 0.866667 0 0 0 0.25 0"/>
<feBlend mode="normal" in2="BackgroundImageFix" result="effect1_dropShadow"/>
<feBlend mode="normal" in="SourceGraphic" in2="effect1_dropShadow" result="shape"/>
</filter>
</defs>
</svg>
