<svg width="71" height="22" viewBox="0 0 71 22" fill="none" xmlns="http://www.w3.org/2000/svg">
<g clip-path="url(#clip0)">
<path d="M8.19503 16.4449C5.50004 16.7749 3.24504 14.5199 3.57504 11.8799C3.79504 10.0649 5.28004 8.57994 7.09503 8.35994C9.79003 8.02994 12.045 10.2849 11.715 12.9249C11.495 14.7399 10.065 16.2249 8.19503 16.4449ZM8.47003 4.78496C3.57504 4.28996 -0.439961 8.35994 0.0550396 13.1999C0.44004 16.7749 3.35504 19.6899 6.93003 20.0199C11.77 20.5149 15.84 16.4449 15.345 11.6049C14.96 8.02994 12.045 5.11496 8.47003 4.78496Z" fill="white"/>
<path d="M19.4147 5.05997C18.3147 5.05997 17.4347 6.04999 17.6547 7.20499C17.8197 8.02999 18.6447 8.63499 19.4697 8.63499H24.4747L16.7197 18.92C16.4447 19.25 16.7197 19.745 17.1047 19.745H29.3147C30.1947 19.745 30.9647 19.1399 31.1297 18.3149C31.3497 17.1599 30.4697 16.17 29.3697 16.17H23.2647L31.0197 5.88499C31.2947 5.55499 31.0197 5.05997 30.5797 5.05997H19.4147Z" fill="white"/>
<path d="M68.2006 5.00503C67.3756 5.17003 66.8256 5.94001 66.8256 6.82001V12.7601L57.0906 5.06003C56.7606 4.78503 56.2656 5.06003 56.2656 5.44503V17.765C56.2656 18.59 56.8156 19.36 57.6956 19.58C58.8506 19.8 59.8956 18.9201 59.8956 17.8201V11.825L69.6306 19.525C69.9606 19.8 70.4556 19.525 70.4556 19.14V6.76501C70.4006 5.66501 69.3556 4.78503 68.2006 5.00503Z" fill="white"/>
<path d="M42.9555 4.67499C37.0155 4.67499 32.2305 8.13999 32.2305 12.375C32.2305 16.61 37.0705 20.02 43.0105 20.02C48.9505 20.02 53.7355 16.555 53.7355 12.32C53.6805 8.08499 48.8955 4.67499 42.9555 4.67499ZM42.9555 8.24999C47.0805 8.24999 50.1055 10.395 50.1055 12.32C50.1055 14.245 47.0255 16.445 42.9555 16.445C38.8305 16.445 35.8055 14.3 35.8055 12.375C35.8055 10.395 38.8855 8.24999 42.9555 8.24999Z" fill="white"/>
<path d="M49.9402 13.145C49.2252 14.795 46.4752 16.39 42.9552 16.39C39.4352 16.39 36.6852 14.795 35.9702 13.145H32.2852C32.8352 16.995 37.4552 20.02 43.0102 19.965C48.5652 19.965 53.0752 16.94 53.6802 13.145H49.9402Z" fill="white"/>
</g>
<defs>
<clipPath id="clip0">
<rect width="70.4" height="22" fill="white"/>
</clipPath>
</defs>
</svg>
