<svg width="75" height="24" viewBox="0 0 75 24" fill="none" xmlns="http://www.w3.org/2000/svg">
<g clip-path="url(#clip0)">
<path d="M30.0588 15.5973L33.4058 23.7341H31.8602L31.0817 21.8043H27.3511L26.584 23.7341H25.1094L28.4081 15.5973H30.0588ZM27.8739 20.4686H30.5475L29.2121 17.132L27.8739 20.4686Z" fill="#8168F0"/>
<path d="M40.3414 16.9359H36.0085V23.7341H34.5566V15.5973H41.7961V23.7341H40.3443V16.9359H40.3414Z" fill="#8168F0"/>
<path d="M49.9025 16.936H47.161V23.7342H45.7089V16.936H43.0127V15.6002H49.9025V16.936Z" fill="#8168F0"/>
<path d="M56.3191 20.2128H52.5771V22.3983H56.8759V23.7341H51.125V15.5973H56.7479V16.9331H52.5771V18.8742H56.3191V20.2128Z" fill="#8168F0"/>
<path d="M23.8823 20.2128H20.1403V22.3983H24.4392V23.7341H18.6885V15.5973H24.3113V16.9331H20.1403V18.8742H23.8823V20.2128Z" fill="#8168F0"/>
<path d="M60.0572 23.7341H58.6055V15.5973H60.0572V19.0134H61.2762L63.8902 15.5973H65.6572L62.5546 19.4682L66.1572 23.7341H64.2991L61.347 20.2128H60.0572V23.7341Z" fill="#8168F0"/>
<path d="M71.2509 15.5973L74.5979 23.7341H73.0526L72.2738 21.8043H68.5433L67.7763 23.7341H66.3018L69.6005 15.5973H71.2509ZM69.0662 20.4686H71.7399L70.4043 17.132L69.0662 20.4686Z" fill="#8168F0"/>
<path d="M21.9715 9.40815C22.4976 9.41112 23.0158 9.28066 23.4783 9.02883L23.8651 8.81852L24.9945 9.65392C24.2493 10.455 23.151 10.8952 21.8929 10.8952C20.6902 10.8952 19.5909 10.4666 18.8046 9.69474C18.0182 8.92287 17.585 7.85013 17.585 6.68461C17.585 5.51913 18.0246 4.46224 18.8093 3.71795C19.5941 2.97364 20.6928 2.5636 21.904 2.5636C23.0207 2.5636 23.997 2.90424 24.7279 3.54896L24.8108 3.61943L23.559 4.54544C23.0964 4.21339 22.5401 4.03871 21.9715 4.04693C20.3983 4.04693 19.2563 5.17427 19.2563 6.72754C19.2563 8.28082 20.3983 9.40815 21.9715 9.40815Z" fill="#21A038"/>
<path fill-rule="evenodd" clip-rule="evenodd" d="M30.3425 5.83273H28.2189V4.01987H31.6085L33.4356 2.66846H26.4736V10.7871H30.1151C32.159 10.7871 33.3311 9.85737 33.3311 8.23679C33.3332 6.68673 32.2709 5.83273 30.3425 5.83273ZM30.0385 9.43511H28.2189V7.18469H30.0385C31.1468 7.18469 31.6619 7.56134 31.6619 8.30994C31.6619 9.0749 31.1135 9.43511 30.0385 9.43511Z" fill="#21A038"/>
<path d="M41.073 2.66846L39.2459 4.01987H36.7033V6.00493H40.4307V7.35689H36.7033V9.43511H41.073V10.7871H34.958V2.66846H41.073Z" fill="#21A038"/>
<path fill-rule="evenodd" clip-rule="evenodd" d="M42.6982 2.66846H46.0279C48.1521 2.66846 49.4707 3.78148 49.4707 5.57369C49.4707 7.36587 48.1508 8.48735 46.0266 8.48735H44.4436V10.7871H42.6982V2.66846ZM44.4436 7.13539H45.9902C47.1084 7.13539 47.7237 6.58235 47.7237 5.57792C47.7237 4.5735 47.1084 4.01987 45.9902 4.01987H44.4436V7.13539Z" fill="#21A038"/>
<path d="M12.0636 2.6355C12.3815 3.04935 12.6533 3.50155 12.8706 3.98358L6.73465 8.53863L4.1709 6.91996V4.9727L6.73465 6.59132L12.0636 2.6355Z" fill="#21A038"/>
<path d="M1.55581 6.78257C1.55581 6.69522 1.55793 6.60842 1.56216 6.52213L0.00846144 6.44385C0.00317316 6.5562 0 6.66915 0 6.78257C0 8.65532 0.75358 10.3512 1.97253 11.5789L3.07408 10.4695C2.13699 9.52454 1.55581 8.22069 1.55581 6.78257Z" fill="url(#paint0_linear)"/>
<path d="M6.73474 1.56646C6.82148 1.56646 6.90767 1.56966 6.99335 1.57392L7.0711 0.00852226C6.95949 0.00319597 6.84737 0 6.73474 0C4.87538 0 3.19161 0.758998 1.97266 1.98671L3.07421 3.09617C4.01235 2.15129 5.30691 1.56646 6.73474 1.56646Z" fill="url(#paint1_linear)"/>
<path d="M6.73479 11.9986C6.64806 11.9986 6.56187 11.9964 6.47619 11.9922L6.39844 13.557C6.51001 13.5623 6.62212 13.5656 6.73479 13.5656C8.59412 13.5656 10.2779 12.8065 11.4969 11.5788L10.3953 10.4694C9.45717 11.4132 8.16259 11.9986 6.73479 11.9986Z" fill="url(#paint2_linear)"/>
<path d="M9.65399 2.47672L10.9639 1.50468C9.80789 0.563521 8.33671 0 6.73438 0V1.567C7.81687 1.56646 8.82217 1.90309 9.65399 2.47672Z" fill="url(#paint3_linear)"/>
<path d="M13.4693 6.78246C13.4693 6.36754 13.4323 5.96168 13.3614 5.56702L11.9119 6.6429C11.913 6.68926 11.914 6.73559 11.914 6.78191C11.914 8.31323 11.2551 9.69274 10.208 10.6477L11.2535 11.8116C12.6142 10.571 13.4693 8.77715 13.4693 6.78246Z" fill="#21A038"/>
<path d="M6.73494 11.9985C5.21456 11.9985 3.84489 11.3349 2.8967 10.2803L1.74121 11.3333C2.97338 12.7043 4.75447 13.5655 6.73494 13.5655V11.9985Z" fill="url(#paint4_linear)"/>
<path d="M3.26181 2.91673L2.21632 1.75293C0.855115 2.99396 0 4.78787 0 6.78256H1.55581C1.55634 5.25073 2.21473 3.87173 3.26181 2.91673Z" fill="url(#paint5_linear)"/>
</g>
<defs>
<linearGradient id="paint0_linear" x1="2.28764" y1="11.3825" x2="0.565931" y2="6.44129" gradientUnits="userSpaceOnUse">
<stop offset="0.1444" stop-color="#F2E913"/>
<stop offset="0.3037" stop-color="#E7E518"/>
<stop offset="0.5823" stop-color="#CADB26"/>
<stop offset="0.891" stop-color="#A3CD39"/>
</linearGradient>
<linearGradient id="paint1_linear" x1="2.4173" y1="2.26371" x2="6.80326" y2="0.604247" gradientUnits="userSpaceOnUse">
<stop offset="0.0592" stop-color="#0FA8E0"/>
<stop offset="0.5385" stop-color="#0099F9"/>
<stop offset="0.9234" stop-color="#0291EB"/>
</linearGradient>
<linearGradient id="paint2_linear" x1="6.29577" y1="12.6198" x2="11.25" y2="11.5081" gradientUnits="userSpaceOnUse">
<stop offset="0.1226" stop-color="#A3CD39"/>
<stop offset="0.2846" stop-color="#86C339"/>
<stop offset="0.8693" stop-color="#21A038"/>
</linearGradient>
<linearGradient id="paint3_linear" x1="6.40887" y1="0.524847" x2="10.647" y2="1.82315" gradientUnits="userSpaceOnUse">
<stop offset="0.0566" stop-color="#0291EB"/>
<stop offset="0.79" stop-color="#0C8ACB"/>
</linearGradient>
<linearGradient id="paint4_linear" x1="2.13144" y1="11.1423" x2="6.74697" y2="12.8545" gradientUnits="userSpaceOnUse">
<stop offset="0.1324" stop-color="#F2E913"/>
<stop offset="0.2977" stop-color="#EBE716"/>
<stop offset="0.5306" stop-color="#D9E01F"/>
<stop offset="0.8023" stop-color="#BBD62D"/>
<stop offset="0.9829" stop-color="#A3CD39"/>
</linearGradient>
<linearGradient id="paint5_linear" x1="0.579839" y1="6.97235" x2="2.45252" y2="2.13559" gradientUnits="userSpaceOnUse">
<stop offset="0.0698" stop-color="#A3CD39"/>
<stop offset="0.2599" stop-color="#81C55F"/>
<stop offset="0.9216" stop-color="#0FA8E0"/>
</linearGradient>
<clipPath id="clip0">
<rect width="75" height="23.7342" fill="white"/>
</clipPath>
</defs>
</svg>
