<svg width="53" height="53" viewBox="0 0 53 53" fill="none" xmlns="http://www.w3.org/2000/svg">
<g clip-path="url(#clip0)">
<path d="M29.3836 6.83257L31.6321 11.3821C31.9724 12.0708 32.6303 12.5482 33.3915 12.6586L38.4191 13.3881C41.2639 13.8009 42.3999 17.292 40.3413 19.2957L36.7032 22.837C36.1525 23.373 35.9012 24.1454 36.0312 24.9024L36.89 29.9028C37.376 32.7321 34.4022 34.8897 31.8576 33.5539L27.3608 31.1931C26.68 30.8357 25.8668 30.8357 25.186 31.1931L20.6892 33.5539C18.1448 34.8897 15.1708 32.7321 15.6568 29.9028L16.5156 24.9024C16.6456 24.1454 16.3943 23.3731 15.8436 22.837L12.2055 19.2957C10.147 17.292 11.2829 13.8009 14.1277 13.3881L19.1554 12.6586C19.9165 12.5482 20.5744 12.0708 20.9148 11.3821L23.1632 6.83257C24.4355 4.25828 28.1113 4.25828 29.3836 6.83257Z" fill="#FFDE5C"/>
<path d="M40.3416 19.2956C42.4001 17.2919 41.2642 13.8008 38.4194 13.388L33.3917 12.6584C32.6306 12.548 31.9727 12.0706 31.6323 11.3819L29.3839 6.83236C28.3169 4.67332 25.5597 4.32612 23.9473 5.78871C24.878 6.01532 25.7274 6.62371 26.2184 7.61717L27.7522 10.7207C28.54 12.3147 30.0627 13.4195 31.8243 13.675L35.6733 14.2336C38.3466 14.6215 39.414 17.9021 37.4796 19.7851L34.529 22.6572C33.358 23.7971 32.8236 25.4394 33.1 27.0489L33.7249 30.6874C33.9444 31.9656 33.4566 33.1053 32.6225 33.8491C34.9574 34.4546 37.3282 32.4518 36.8904 29.9026L36.0316 24.9022C35.9016 24.1452 36.1529 23.3729 36.7036 22.8368L40.3416 19.2956Z" fill="#FFC736"/>
<path d="M52.4813 19.5144C47.5447 14.2948 44.377 19.9124 44.377 19.9124C47.4404 23.9005 51.5618 20.6542 52.4663 19.8577C52.5678 19.7682 52.5742 19.6127 52.4813 19.5144Z" fill="#FF8724"/>
<path d="M52.4812 19.514C50.1409 17.0395 48.1984 17.0012 46.8023 17.6448C47.5741 17.9763 48.4124 18.5656 49.3094 19.514C49.4024 19.6123 49.3959 19.7678 49.2944 19.8572C48.8794 20.2228 47.7866 21.1039 46.4297 21.5653C49.045 22.6314 51.7538 20.4847 52.4663 19.8572C52.5677 19.7678 52.5742 19.6123 52.4812 19.514Z" fill="#F86F1B"/>
<path d="M51 28.5567C47.4978 22.2864 43.0459 26.9552 43.0459 26.9552C45.0351 31.5724 49.8285 29.4361 50.9011 28.8858C51.0214 28.824 51.0659 28.6749 51 28.5567Z" fill="#FF8724"/>
<path d="M50.9998 28.5566C48.9822 24.9441 46.6494 24.9627 45.0342 25.6274C45.9671 26.0592 46.9287 26.9468 47.8279 28.5566C47.8939 28.6748 47.8494 28.8239 47.7289 28.8857C47.3824 29.0635 46.6469 29.4067 45.7435 29.6345C47.8288 30.3184 50.1875 29.2517 50.9007 28.8857C51.0212 28.8239 51.0657 28.6748 50.9998 28.5566Z" fill="#F86F1B"/>
<path d="M46.6826 38.1407C46.8071 30.9619 40.6096 32.7664 40.6096 32.7664C40.008 37.7568 45.2273 38.3135 46.4316 38.3756C46.5667 38.3826 46.6802 38.2758 46.6826 38.1407Z" fill="#FF8724"/>
<path d="M40.6097 32.7664C40.6088 32.7738 40.6082 32.7809 40.6074 32.7883C42.0528 33.2413 43.4575 34.5154 43.5103 37.7405C44.7065 38.2357 45.9247 38.3495 46.4316 38.3756C46.5668 38.3826 46.6803 38.2758 46.6826 38.1407C46.8072 30.9619 40.6097 32.7664 40.6097 32.7664Z" fill="#F86F1B"/>
<path d="M39.0145 44.5786C41.9195 38.3214 35.6997 37.5327 35.6997 37.5327C33.2217 41.6853 37.6515 44.1731 38.6995 44.6888C38.8173 44.7467 38.9598 44.6964 39.0145 44.5786Z" fill="#FF8724"/>
<path d="M35.6999 37.5327C35.4718 37.9149 35.3026 38.2829 35.1836 38.6368C36.2129 39.4372 37.0129 40.7945 36.4022 43.0685C37.2625 43.9289 38.268 44.4764 38.6997 44.6888C38.8173 44.7467 38.9599 44.6965 39.0146 44.5786C41.9197 38.3214 35.6999 37.5327 35.6999 37.5327Z" fill="#F86F1B"/>
<path d="M50.4979 9.88854C44.2228 8.09671 44.3773 14.0281 44.3773 14.0281C48.6207 15.7316 50.3139 11.2226 50.6462 10.1667C50.6835 10.0481 50.6161 9.9223 50.4979 9.88854Z" fill="#FF8724"/>
<path d="M50.4981 9.88851C48.933 9.44156 47.768 9.47522 46.9007 9.77736C47.0396 9.81082 47.1806 9.84684 47.3263 9.88851C47.4444 9.92228 47.512 10.0481 47.4747 10.1666C47.2479 10.8872 46.3869 13.2155 44.5146 14.0805C48.6572 15.6331 50.3178 11.2111 50.6465 10.1666C50.6838 10.0481 50.6163 9.92228 50.4981 9.88851Z" fill="#F86F1B"/>
<path d="M26.4475 39.627C26.3459 39.5449 26.201 39.5449 26.0994 39.627C25.2341 40.3261 21.6117 43.681 26.0846 47.7287C26.1919 47.8259 26.3548 47.8259 26.4622 47.7287C30.9351 43.681 27.3128 40.3261 26.4475 39.627Z" fill="#F86F1B"/>
<path d="M0.0656615 19.5144C5.00219 14.2948 8.16999 19.9124 8.16999 19.9124C5.10657 23.9005 0.985129 20.6542 0.0806456 19.8577C-0.0208561 19.7682 -0.0273218 19.6127 0.0656615 19.5144Z" fill="#FF8724"/>
<path d="M2.57227 17.6449C4.12106 18.3589 4.99763 19.9121 4.99763 19.9121C4.34747 20.7586 3.64958 21.2782 2.94492 21.5655C4.54483 22.1095 6.51195 22.07 8.16953 19.9121C8.16953 19.9121 6.04795 16.1519 2.57227 17.6449Z" fill="#F86F1B"/>
<path d="M1.5471 28.5567C5.04927 22.2864 9.50118 26.9552 9.50118 26.9552C7.51199 31.5724 2.71863 29.4361 1.64604 28.8858C1.52565 28.824 1.48121 28.6749 1.5471 28.5567Z" fill="#FF8724"/>
<path d="M4.34122 25.6273C5.52958 26.1163 6.32968 26.955 6.32968 26.955C5.6633 28.5018 4.68226 29.2899 3.63184 29.6344C5.52424 30.1112 8.15517 30.0803 9.50158 26.955C9.50148 26.955 7.04204 24.3772 4.34122 25.6273Z" fill="#F86F1B"/>
<path d="M5.86416 38.1407C5.73966 30.9619 11.9371 32.7664 11.9371 32.7664C12.5387 37.7568 7.31946 38.3135 6.11509 38.3756C5.98003 38.3826 5.86652 38.2758 5.86416 38.1407Z" fill="#FF8724"/>
<path d="M11.9367 32.7664C11.9367 32.7664 10.3286 32.2988 8.76719 32.7883C9.10474 35.6632 7.50555 37.061 5.86429 37.7405C5.86213 37.8711 5.86141 38.0037 5.86377 38.1407C5.86613 38.2758 5.97954 38.3826 6.11481 38.3756C7.31897 38.3135 12.5384 37.7568 11.9367 32.7664Z" fill="#F86F1B"/>
<path d="M13.5545 44.5786C10.6886 38.3214 16.8245 37.5327 16.8245 37.5327C19.2692 41.6853 14.8989 44.1731 13.865 44.6888C13.7491 44.7467 13.6085 44.6964 13.5545 44.5786Z" fill="#FF8724"/>
<path d="M16.8252 37.5327C16.8252 37.5327 15.3397 37.7242 14.1719 38.6638C14.7815 40.5363 13.9952 42.0048 12.9941 43.0342C13.1173 43.5081 13.3 44.0212 13.5552 44.5786C13.6092 44.6964 13.7498 44.7467 13.8659 44.6888C14.8997 44.173 19.2698 41.6853 16.8252 37.5327Z" fill="#F86F1B"/>
<path d="M2.04924 9.88854C8.32428 8.09671 8.16983 14.0281 8.16983 14.0281C3.92646 15.7316 2.23326 11.2226 1.90094 10.1667C1.86359 10.0481 1.93101 9.9223 2.04924 9.88854Z" fill="#FF8724"/>
<path d="M2.47461 9.77758C5.08461 10.6868 4.99778 14.0282 4.99778 14.0282C4.9517 14.0467 4.90634 14.0635 4.86077 14.0806C5.732 14.4831 6.82204 14.5692 8.16958 14.0282C8.16958 14.0282 8.31583 8.37041 2.47461 9.77758Z" fill="#F86F1B"/>
<path d="M26.5213 15.4116H24.4406C24.0155 15.4116 23.6709 15.7563 23.6709 16.1814C23.6709 16.6064 24.0155 16.9511 24.4406 16.9511H25.7515V25.9102C25.7515 26.3353 26.0962 26.68 26.5213 26.68C26.9465 26.68 27.291 26.3353 27.291 25.9102V16.1814C27.291 15.7563 26.9465 15.4116 26.5213 15.4116Z" fill="#FF8724"/>
</g>
<defs>
<clipPath id="clip0">
<rect width="52.5469" height="52.5469" fill="white" transform="translate(0 0.078125)"/>
</clipPath>
</defs>
</svg>
