<svg width="96" height="26" viewBox="0 0 96 26" fill="none" xmlns="http://www.w3.org/2000/svg">
<g clip-path="url(#clip0)">
<path d="M2.97996 18.4797L0.0498047 7.50903H1.9719L4.22324 15.9351L6.63608 7.5083L8.4278 7.50903L10.8491 15.9799L13.1106 7.5111L15.0326 7.5083L12.1012 18.4778L9.87328 18.4755L7.53268 10.2827L5.18988 18.4776L2.97996 18.4797Z" fill="#BE11A5"/>
<path d="M16.3584 7.51465H18.188V18.4726H16.3584V7.51465Z" fill="#BE11A5"/>
<path d="M22.0994 16.7537H26.5537V18.4726H20.3076V7.51465H22.0994V16.7537Z" fill="#BE11A5"/>
<path d="M32.1818 7.52728C33.6833 7.52728 34.9326 8.05813 35.9168 9.10715C36.9137 10.1562 37.4184 11.458 37.4184 12.9999C37.4184 14.5292 36.9137 15.831 35.9168 16.8927C34.9326 17.9417 33.6833 18.4726 32.1818 18.4726H27.8789V7.51465H32.1818V7.52728ZM32.1818 16.7663C33.2165 16.7663 34.0619 16.4124 34.6928 15.7046C35.349 14.9969 35.6771 14.0869 35.6771 13.0126C35.6771 11.913 35.349 11.0283 34.6928 10.3205C34.0493 9.61269 33.2039 9.2588 32.1818 9.2588H29.6833V16.7663H32.1818Z" fill="#BE11A5"/>
<path d="M47.0714 15.3422C47.0714 16.24 46.7562 16.9861 46.1126 17.5804C45.469 18.1748 44.7118 18.4782 43.7782 18.4782H39.0967V7.51465H43.4374C44.3334 7.51465 45.0902 7.81816 45.7086 8.38719C46.3398 8.96886 46.6426 9.68967 46.6426 10.5495C46.6426 11.5106 46.2638 12.244 45.5322 12.7878C46.491 13.2936 47.0714 14.2041 47.0714 15.3422ZM40.901 9.20916V12.0923H43.4498C44.245 12.0923 44.8506 11.46 44.8506 10.6507C44.8506 9.8414 44.245 9.20916 43.4498 9.20916H40.901ZM43.7906 16.7838C44.6234 16.7838 45.2798 16.1135 45.2798 15.2537C45.2798 14.3938 44.6234 13.7236 43.7906 13.7236H40.901V16.7964H43.7906V16.7838Z" fill="#BE11A5"/>
<path d="M50.567 16.7585H55.4126V18.4782H48.7754V7.51465H55.337V9.23443H50.567V12.0796H54.9458V13.7868H50.567V16.7585Z" fill="#BE11A5"/>
<path d="M63.2609 18.4782L60.9389 14.4823H58.8189V18.4782H57.0273V7.51465H61.4057C62.3901 7.51465 63.2229 7.85606 63.8917 8.55156C64.5729 9.22179 64.9265 10.0564 64.9265 11.0427C64.9265 12.4337 64.0557 13.7109 62.7561 14.2167L65.2417 18.4782H63.2609ZM58.8189 9.20912V12.8763H61.3933C62.3521 12.8763 63.1093 12.067 63.1093 11.0427C63.1093 10.0311 62.3397 9.20912 61.3933 9.20912H58.8189Z" fill="#BE11A5"/>
<path d="M72.838 18.4782L70.5288 14.4802H68.4088V18.4782H66.6172V7.50891H70.9956C71.98 7.50891 72.8128 7.85053 73.4816 8.54639C74.1628 9.21695 74.5164 10.052 74.5164 11.0388C74.5164 12.4305 73.6456 13.7084 72.346 14.2145L74.8316 18.4782H72.838ZM68.4088 9.20427V12.8734H70.9832C71.942 12.8734 72.6992 12.0636 72.6992 11.0388C72.6992 10.0267 71.9296 9.20427 70.9832 9.20427H68.4088Z" fill="#BE11A5"/>
<path d="M76.1445 7.51025H77.9365V18.4783H76.1445V7.51025Z" fill="#BE11A5"/>
<path d="M81.8477 16.7585H86.6933V18.4782H80.0557V7.51465H86.6173V9.23443H81.8477V12.0796H86.2261V13.7868H81.8477V16.7585Z" fill="#BE11A5"/>
<path d="M87.9424 15.9828L89.4944 15.0728C89.936 16.3114 90.832 16.918 92.2072 16.918C93.57 16.918 94.2388 16.3367 94.2388 15.4772C94.2388 15.0222 94.0496 14.6936 93.6964 14.4661C93.3428 14.226 92.6868 13.9605 91.7532 13.6825C90.7056 13.3665 90.1884 13.1643 89.4564 12.684C88.75 12.1785 88.3964 11.458 88.3964 10.4722C88.3964 9.49902 88.7372 8.74071 89.4312 8.17196C90.1128 7.59054 90.9456 7.3125 91.9172 7.3125C93.6712 7.3125 95.0212 8.2225 95.728 9.72652L94.2136 10.5986C93.7592 9.5875 92.9896 9.06929 91.9172 9.06929C90.8696 9.06929 90.2008 9.60013 90.2008 10.4343C90.2008 11.2432 90.7308 11.6224 92.4092 12.1405C92.8256 12.2796 93.1284 12.3807 93.3176 12.4565C93.5196 12.5197 93.7844 12.6335 94.1252 12.7725C94.4788 12.9115 94.7564 13.0758 94.9204 13.2149C95.5008 13.6699 96.1188 14.4155 96.0432 15.4646C96.0432 16.4504 95.69 17.2467 94.9708 17.828C94.264 18.4095 93.3304 18.6875 92.1696 18.6875C90.0496 18.6749 88.51 17.6638 87.9424 15.9828Z" fill="#BE11A5"/>
</g>
<defs>
<clipPath id="clip0">
<rect width="96" height="26" fill="white"/>
</clipPath>
</defs>
</svg>
