<svg width="107" height="15" viewBox="0 0 107 15" fill="none" xmlns="http://www.w3.org/2000/svg">
<g clip-path="url(#clip0)">
<path d="M105.786 0.931873C105.297 0.438937 104.638 0.162598 103.951 0.162598C103.264 0.162598 102.605 0.438937 102.116 0.931873L100.828 2.23359L99.5354 0.931873C99.0463 0.438937 98.3871 0.162598 97.7003 0.162598C97.0135 0.162598 96.3543 0.438937 95.8652 0.931873C95.6249 1.17409 95.434 1.46272 95.3038 1.78099C95.1735 2.09926 95.1064 2.44083 95.1064 2.78584C95.1064 3.13084 95.1735 3.47241 95.3038 3.79068C95.434 4.10895 95.6249 4.39758 95.8652 4.6398L97.1577 5.94645L100.828 9.6593L105.786 4.6398C106.026 4.39758 106.217 4.10895 106.347 3.79068C106.478 3.47241 106.545 3.13084 106.545 2.78584C106.545 2.44083 106.478 2.09926 106.347 1.78099C106.217 1.46272 106.026 1.17409 105.786 0.931873Z" fill="#FF5B00"/>
<path d="M9.27806 6.99673C9.27806 8.96903 7.53214 9.95518 5.06761 9.95518C2.0002 9.94039 0.784813 8.48582 0.442383 6.52831H2.92621C3.11431 7.65252 3.77988 8.05192 5.01455 8.05192C6.24923 8.05192 6.79905 7.60322 6.79905 6.82416C6.79905 6.25219 6.52414 5.80349 5.42451 5.80349H3.85222V3.89529H5.16889C6.19618 3.89529 6.50485 3.56493 6.50485 2.96338C6.50485 2.36183 6.0949 1.83424 4.89398 1.83424C4.05478 1.83424 3.3024 2.07585 3.11431 3.06693H0.630479C0.924679 1.38554 2.06772 0 4.92774 0C7.291 0 8.96939 0.98615 8.96939 2.7908C8.98779 3.19122 8.8864 3.58786 8.67875 3.92789C8.47109 4.26791 8.16703 4.53518 7.80705 4.69407C8.25886 4.86963 8.64462 5.18706 8.90892 5.60078C9.17322 6.0145 9.30245 6.50322 9.27806 6.99673Z" fill="#1D1D1B"/>
<path d="M21.7645 7.39606V12.1394H19.3145V9.73324H12.2392V12.1394H9.79395V7.39606H11.4723C11.7955 7.11994 12.0029 6.56277 12.1572 5.59634L13.0109 0.207031H20.0524V7.39606H21.7645ZM17.6023 7.39606V2.54421H15.104L14.588 5.71468C14.5272 6.3067 14.3465 6.87931 14.0574 7.39606H17.6023Z" fill="#1D1D1B"/>
<path d="M32.4955 4.97015C32.4955 7.89902 30.6435 9.94035 28.1934 9.94035C27.6168 9.95766 27.0446 9.83218 26.5256 9.57462C26.0066 9.31706 25.5562 8.93504 25.2128 8.46112V14.0625H22.7676V0.207046H25.2128V1.54328C25.5491 1.05725 25.9964 0.662579 26.5159 0.393602C27.0353 0.124625 27.6112 -0.0105097 28.1934 -4.57833e-05C30.6097 -4.57833e-05 32.4955 2.02649 32.4955 4.97015ZM30.0117 4.97015C30.0117 3.41203 28.9989 2.35685 27.6291 2.35685C27.2999 2.35625 26.974 2.42457 26.6716 2.55761C26.3692 2.69066 26.0966 2.8856 25.8707 3.13043C25.6448 3.37527 25.4703 3.6648 25.358 3.98121C25.2456 4.29761 25.1979 4.63417 25.2176 4.97015C25.1979 5.30614 25.2456 5.6427 25.358 5.9591C25.4703 6.2755 25.6448 6.56503 25.8707 6.80987C26.0966 7.0547 26.3692 7.24965 26.6716 7.38269C26.974 7.51573 27.2999 7.58405 27.6291 7.58345C28.9844 7.58345 30.0117 6.54799 30.0117 4.97015Z" fill="#1D1D1B"/>
<path d="M43.1207 0.207106V9.73332H40.6562V8.45132C40.3204 8.925 39.8762 9.30746 39.3626 9.5653C38.8489 9.82315 38.2813 9.94854 37.7094 9.93055C35.2448 9.93055 33.4121 7.88922 33.4121 4.96035C33.4121 2.03148 35.2786 1.46676e-05 37.6949 1.46676e-05C38.2775 -0.0130318 38.8543 0.120973 39.3742 0.390166C39.8941 0.659359 40.341 1.05544 40.6755 1.54334V0.207106H43.1207ZM40.6755 4.97021C40.6952 4.63423 40.6475 4.29767 40.5352 3.98127C40.4229 3.66487 40.2484 3.37533 40.0225 3.13049C39.7965 2.88566 39.524 2.69072 39.2215 2.55767C38.9191 2.42463 38.5932 2.35631 38.264 2.35691C36.8943 2.35691 35.8815 3.41209 35.8815 4.97021C35.8815 6.52833 36.9088 7.58351 38.264 7.58351C38.5932 7.58412 38.9191 7.51579 39.2215 7.38275C39.524 7.24971 39.7965 7.05476 40.0225 6.80993C40.2484 6.56509 40.4229 6.27556 40.5352 5.95916C40.6475 5.64276 40.6952 5.3062 40.6755 4.97021Z" fill="#1D1D1B"/>
<path d="M52.7134 6.98188C52.7134 8.95418 51.2231 9.73324 49.2891 9.73324H44.3311V0.207031H48.8839C50.7697 0.207031 52.26 0.700106 52.26 2.61324C52.26 3.59939 51.744 4.12205 51.0398 4.58554C51.5486 4.72228 51.9945 5.03679 52.3002 5.4745C52.6059 5.91221 52.7521 6.44551 52.7134 6.98188ZM48.6717 2.14975H46.7425V3.98399H48.6717C49.5109 3.98399 49.7858 3.67335 49.7858 3.08166C49.7858 2.48997 49.4965 2.14975 48.6717 2.14975ZM50.244 6.75507C50.244 6.07956 49.9402 5.76892 49.1154 5.76892H46.7425V7.81518H49.0913C49.9546 7.79546 50.2295 7.44537 50.2295 6.75507H50.244Z" fill="#1D1D1B"/>
<path d="M53.4328 4.97019C53.4194 4.30912 53.5377 3.65218 53.7806 3.03939C54.0235 2.42659 54.3859 1.87077 54.8457 1.40577C55.3055 0.94077 55.8531 0.57633 56.4551 0.334648C57.0571 0.0929661 57.7009 -0.0208983 58.3474 -9.64524e-06C60.6431 -9.64524e-06 62.688 1.40032 63.0401 3.82625H60.5225C60.3831 3.35643 60.0922 2.94869 59.6973 2.66936C59.3023 2.39003 58.8266 2.25557 58.3474 2.28786C56.8571 2.28786 55.8973 3.39235 55.9359 4.97019C55.9745 6.54803 56.9005 7.65744 58.3474 7.65744C58.8322 7.68929 59.3132 7.55203 59.7119 7.26811C60.1105 6.98418 60.4031 6.57039 60.5418 6.0944H63.0594C62.6832 8.60908 60.6093 9.94038 58.3474 9.94038C57.7008 9.96198 57.0566 9.84861 56.4543 9.60718C55.852 9.36575 55.3041 9.00134 54.8442 8.53619C54.3843 8.07105 54.0219 7.51494 53.7792 6.90182C53.5365 6.2887 53.4187 5.63144 53.4328 4.97019Z" fill="#1D1D1B"/>
<path d="M73.0327 0.207031V9.73324H70.5827V6.35568L70.737 3.53036L66.8497 9.73324H64.0234V0.207031H66.4735V3.5846L66.3529 6.3754L70.2113 0.207031H73.0327Z" fill="#1D1D1B"/>
<path d="M82.2835 2.54421H79.3897V9.73324H76.9397V2.54421H74.0459V0.207031H82.298V2.54421H82.2835Z" fill="#1D1D1B"/>
<path d="M92.2476 0.207031V9.73324H89.7975V6.35568L89.9519 3.53036L86.0645 9.73324H83.2383V0.207031H85.6883V3.5846L85.5678 6.3754L89.4261 0.207031H92.2476Z" fill="#1D1D1B"/>
<path d="M97.1577 5.94645L95.8652 4.6398C95.6249 4.39758 95.434 4.10895 95.3038 3.79068C95.1735 3.47241 95.1064 3.13084 95.1064 2.78584C95.1064 2.44083 95.1735 2.09926 95.3038 1.78099C95.434 1.46272 95.6249 1.17409 95.8652 0.931873C96.3543 0.438937 97.0135 0.162598 97.7003 0.162598C98.3871 0.162598 99.0463 0.438937 99.5354 0.931873L100.828 2.23359L97.1577 5.94645Z" fill="#FF8150"/>
</g>
<defs>
<clipPath id="clip0">
<rect width="106.105" height="14.0625" fill="white" transform="translate(0.442383)"/>
</clipPath>
</defs>
</svg>
