<svg width="34" height="34" viewBox="0 0 34 34" fill="none" xmlns="http://www.w3.org/2000/svg">
<g filter="url(#filter0_d)">
<circle r="13" transform="matrix(-1 0 0 1 17 13)" fill="#BED6DE" fill-opacity="0.9"/>
<g clip-path="url(#clip0)">
<path d="M17 9.75C16.138 9.75 15.3114 10.0924 14.7019 10.7019C14.0924 11.3114 13.75 12.138 13.75 13C13.75 13.862 14.0924 14.6886 14.7019 15.2981C15.3114 15.9076 16.138 16.25 17 16.25C17.862 16.25 18.6886 15.9076 19.2981 15.2981C19.9076 14.6886 20.25 13.862 20.25 13C20.25 12.138 19.9076 11.3114 19.2981 10.7019C18.6886 10.0924 17.862 9.75 17 9.75Z" fill="white"/>
<path fill-rule="evenodd" clip-rule="evenodd" d="M17.0001 5.84985C17.1725 5.84985 17.3378 5.91834 17.4597 6.04023C17.5816 6.16213 17.6501 6.32746 17.6501 6.49985V7.14985C17.6501 7.32224 17.5816 7.48757 17.4597 7.60947C17.3378 7.73137 17.1725 7.79985 17.0001 7.79985C16.8277 7.79985 16.6624 7.73137 16.5405 7.60947C16.4186 7.48757 16.3501 7.32224 16.3501 7.14985V6.49985C16.3501 6.32746 16.4186 6.16213 16.5405 6.04023C16.6624 5.91834 16.8277 5.84985 17.0001 5.84985ZM11.3405 7.3403C11.4624 7.21845 11.6277 7.14999 11.8001 7.14999C11.9725 7.14999 12.1378 7.21845 12.2596 7.3403L13.2346 8.3153C13.3531 8.4379 13.4186 8.60209 13.4171 8.77251C13.4156 8.94294 13.3472 9.10597 13.2267 9.22649C13.1062 9.347 12.9432 9.41536 12.7728 9.41684C12.6023 9.41832 12.4381 9.35281 12.3155 9.2344L11.3405 8.2594C11.2187 8.13751 11.1502 7.97221 11.1502 7.79985C11.1502 7.6275 11.2187 7.4622 11.3405 7.3403ZM22.6596 7.3403C22.7815 7.4622 22.85 7.6275 22.85 7.79985C22.85 7.97221 22.7815 8.13751 22.6596 8.2594L21.6846 9.2344C21.6247 9.29649 21.553 9.346 21.4737 9.38007C21.3944 9.41414 21.3091 9.43207 21.2228 9.43282C21.1365 9.43357 21.0509 9.41712 20.971 9.38444C20.8911 9.35176 20.8185 9.30349 20.7575 9.24246C20.6965 9.18143 20.6482 9.10886 20.6155 9.02897C20.5828 8.94909 20.5664 8.8635 20.5671 8.77719C20.5679 8.69089 20.5858 8.60559 20.6199 8.52629C20.6539 8.44699 20.7035 8.37526 20.7655 8.3153L21.7405 7.3403C21.8624 7.21845 22.0277 7.14999 22.2001 7.14999C22.3725 7.14999 22.5378 7.21845 22.6596 7.3403ZM9.8501 12.9999C9.8501 12.8275 9.91858 12.6621 10.0405 12.5402C10.1624 12.4183 10.3277 12.3499 10.5001 12.3499H11.1501C11.3225 12.3499 11.4878 12.4183 11.6097 12.5402C11.7316 12.6621 11.8001 12.8275 11.8001 12.9999C11.8001 13.1722 11.7316 13.3376 11.6097 13.4595C11.4878 13.5814 11.3225 13.6499 11.1501 13.6499H10.5001C10.3277 13.6499 10.1624 13.5814 10.0405 13.4595C9.91858 13.3376 9.8501 13.1722 9.8501 12.9999ZM22.2001 12.9999C22.2001 12.8275 22.2686 12.6621 22.3905 12.5402C22.5124 12.4183 22.6777 12.3499 22.8501 12.3499H23.5001C23.6725 12.3499 23.8378 12.4183 23.9597 12.5402C24.0816 12.6621 24.1501 12.8275 24.1501 12.9999C24.1501 13.1722 24.0816 13.3376 23.9597 13.4595C23.8378 13.5814 23.6725 13.6499 23.5001 13.6499H22.8501C22.6777 13.6499 22.5124 13.5814 22.3905 13.4595C22.2686 13.3376 22.2001 13.1722 22.2001 12.9999ZM13.2346 16.7653C13.3565 16.8872 13.425 17.0525 13.425 17.2249C13.425 17.3972 13.3565 17.5625 13.2346 17.6844L12.2596 18.6594C12.1371 18.7778 11.9729 18.8433 11.8024 18.8418C11.632 18.8404 11.469 18.772 11.3485 18.6515C11.228 18.531 11.1596 18.3679 11.1581 18.1975C11.1566 18.0271 11.2221 17.8629 11.3405 17.7403L12.3155 16.7653C12.4374 16.6434 12.6027 16.575 12.7751 16.575C12.9475 16.575 13.1128 16.6434 13.2346 16.7653ZM20.7655 16.7653C20.8874 16.6434 21.0527 16.575 21.2251 16.575C21.3975 16.575 21.5628 16.6434 21.6846 16.7653L22.6596 17.7403C22.7781 17.8629 22.8436 18.0271 22.8421 18.1975C22.8406 18.3679 22.7722 18.531 22.6517 18.6515C22.5312 18.772 22.3682 18.8404 22.1978 18.8418C22.0273 18.8433 21.8631 18.7778 21.7405 18.6594L20.7655 17.6844C20.6437 17.5625 20.5752 17.3972 20.5752 17.2249C20.5752 17.0525 20.6437 16.8872 20.7655 16.7653ZM17.0001 18.1999C17.1725 18.1999 17.3378 18.2683 17.4597 18.3902C17.5816 18.5121 17.6501 18.6775 17.6501 18.8499V19.4999C17.6501 19.6722 17.5816 19.8376 17.4597 19.9595C17.3378 20.0814 17.1725 20.1499 17.0001 20.1499C16.8277 20.1499 16.6624 20.0814 16.5405 19.9595C16.4186 19.8376 16.3501 19.6722 16.3501 19.4999V18.8499C16.3501 18.6775 16.4186 18.5121 16.5405 18.3902C16.6624 18.2683 16.8277 18.1999 17.0001 18.1999Z" fill="white"/>
</g>
</g>
<defs>
<filter id="filter0_d" x="0" y="0" width="34" height="34" filterUnits="userSpaceOnUse" color-interpolation-filters="sRGB">
<feFlood flood-opacity="0" result="BackgroundImageFix"/>
<feColorMatrix in="SourceAlpha" type="matrix" values="0 0 0 0 0 0 0 0 0 0 0 0 0 0 0 0 0 0 127 0" result="hardAlpha"/>
<feOffset dy="4"/>
<feGaussianBlur stdDeviation="2"/>
<feComposite in2="hardAlpha" operator="out"/>
<feColorMatrix type="matrix" values="0 0 0 0 0.448125 0 0 0 0 0.448187 0 0 0 0 0.45 0 0 0 0.15 0"/>
<feBlend mode="normal" in2="BackgroundImageFix" result="effect1_dropShadow"/>
<feBlend mode="normal" in="SourceGraphic" in2="effect1_dropShadow" result="shape"/>
</filter>
<clipPath id="clip0">
<rect width="15.6" height="15.6" fill="white" transform="translate(9.2002 5.19995)"/>
</clipPath>
</defs>
</svg>
