<svg width="34" height="34" viewBox="0 0 34 34" fill="none" xmlns="http://www.w3.org/2000/svg">
<g filter="url(#filter0_d)">
<circle r="13" transform="matrix(-1 0 0 1 17 13)" fill="#FFAF73" fill-opacity="0.9"/>
<g clip-path="url(#clip0)">
<path d="M17 9.75C16.138 9.75 15.3114 10.0924 14.7019 10.7019C14.0924 11.3114 13.75 12.138 13.75 13C13.75 13.862 14.0924 14.6886 14.7019 15.2981C15.3114 15.9076 16.138 16.25 17 16.25C17.862 16.25 18.6886 15.9076 19.2981 15.2981C19.9076 14.6886 20.25 13.862 20.25 13C20.25 12.138 19.9076 11.3114 19.2981 10.7019C18.6886 10.0924 17.862 9.75 17 9.75Z" fill="white"/>
<path fill-rule="evenodd" clip-rule="evenodd" d="M17.0001 5.85004C17.1725 5.85004 17.3378 5.91852 17.4597 6.04042C17.5816 6.16232 17.6501 6.32765 17.6501 6.50004V7.15004C17.6501 7.32243 17.5816 7.48776 17.4597 7.60966C17.3378 7.73155 17.1725 7.80004 17.0001 7.80004C16.8277 7.80004 16.6624 7.73155 16.5405 7.60966C16.4186 7.48776 16.3501 7.32243 16.3501 7.15004V6.50004C16.3501 6.32765 16.4186 6.16232 16.5405 6.04042C16.6624 5.91852 16.8277 5.85004 17.0001 5.85004ZM11.3405 7.34049C11.4624 7.21863 11.6277 7.15018 11.8001 7.15018C11.9725 7.15018 12.1378 7.21863 12.2596 7.34049L13.2346 8.31549C13.3531 8.43808 13.4186 8.60227 13.4171 8.7727C13.4156 8.94313 13.3472 9.10615 13.2267 9.22667C13.1062 9.34718 12.9432 9.41554 12.7728 9.41703C12.6023 9.41851 12.4381 9.35299 12.3155 9.23459L11.3405 8.25959C11.2187 8.13769 11.1502 7.97239 11.1502 7.80004C11.1502 7.62768 11.2187 7.46238 11.3405 7.34049ZM22.6596 7.34049C22.7815 7.46238 22.85 7.62768 22.85 7.80004C22.85 7.97239 22.7815 8.13769 22.6596 8.25959L21.6846 9.23459C21.6247 9.29667 21.553 9.34619 21.4737 9.38025C21.3944 9.41432 21.3091 9.43225 21.2228 9.433C21.1365 9.43375 21.0509 9.4173 20.971 9.38462C20.8911 9.35194 20.8185 9.30367 20.7575 9.24264C20.6965 9.18161 20.6482 9.10904 20.6155 9.02916C20.5828 8.94927 20.5664 8.86368 20.5671 8.77738C20.5679 8.69107 20.5858 8.60578 20.6199 8.52647C20.6539 8.44717 20.7035 8.37545 20.7655 8.31549L21.7405 7.34049C21.8624 7.21863 22.0277 7.15018 22.2001 7.15018C22.3725 7.15018 22.5378 7.21863 22.6596 7.34049ZM9.8501 13C9.8501 12.8276 9.91858 12.6623 10.0405 12.5404C10.1624 12.4185 10.3277 12.35 10.5001 12.35H11.1501C11.3225 12.35 11.4878 12.4185 11.6097 12.5404C11.7316 12.6623 11.8001 12.8276 11.8001 13C11.8001 13.1724 11.7316 13.3378 11.6097 13.4597C11.4878 13.5816 11.3225 13.65 11.1501 13.65H10.5001C10.3277 13.65 10.1624 13.5816 10.0405 13.4597C9.91858 13.3378 9.8501 13.1724 9.8501 13ZM22.2001 13C22.2001 12.8276 22.2686 12.6623 22.3905 12.5404C22.5124 12.4185 22.6777 12.35 22.8501 12.35H23.5001C23.6725 12.35 23.8378 12.4185 23.9597 12.5404C24.0816 12.6623 24.1501 12.8276 24.1501 13C24.1501 13.1724 24.0816 13.3378 23.9597 13.4597C23.8378 13.5816 23.6725 13.65 23.5001 13.65H22.8501C22.6777 13.65 22.5124 13.5816 22.3905 13.4597C22.2686 13.3378 22.2001 13.1724 22.2001 13ZM13.2346 16.7655C13.3565 16.8874 13.425 17.0527 13.425 17.225C13.425 17.3974 13.3565 17.5627 13.2346 17.6846L12.2596 18.6596C12.1371 18.778 11.9729 18.8435 11.8024 18.842C11.632 18.8405 11.469 18.7722 11.3485 18.6517C11.228 18.5312 11.1596 18.3681 11.1581 18.1977C11.1566 18.0273 11.2221 17.8631 11.3405 17.7405L12.3155 16.7655C12.4374 16.6436 12.6027 16.5752 12.7751 16.5752C12.9475 16.5752 13.1128 16.6436 13.2346 16.7655ZM20.7655 16.7655C20.8874 16.6436 21.0527 16.5752 21.2251 16.5752C21.3975 16.5752 21.5628 16.6436 21.6846 16.7655L22.6596 17.7405C22.7781 17.8631 22.8436 18.0273 22.8421 18.1977C22.8406 18.3681 22.7722 18.5312 22.6517 18.6517C22.5312 18.7722 22.3682 18.8405 22.1978 18.842C22.0273 18.8435 21.8631 18.778 21.7405 18.6596L20.7655 17.6846C20.6437 17.5627 20.5752 17.3974 20.5752 17.225C20.5752 17.0527 20.6437 16.8874 20.7655 16.7655ZM17.0001 18.2C17.1725 18.2 17.3378 18.2685 17.4597 18.3904C17.5816 18.5123 17.6501 18.6776 17.6501 18.85V19.5C17.6501 19.6724 17.5816 19.8378 17.4597 19.9597C17.3378 20.0816 17.1725 20.15 17.0001 20.15C16.8277 20.15 16.6624 20.0816 16.5405 19.9597C16.4186 19.8378 16.3501 19.6724 16.3501 19.5V18.85C16.3501 18.6776 16.4186 18.5123 16.5405 18.3904C16.6624 18.2685 16.8277 18.2 17.0001 18.2Z" fill="white"/>
</g>
</g>
<defs>
<filter id="filter0_d" x="0" y="0" width="34" height="34" filterUnits="userSpaceOnUse" color-interpolation-filters="sRGB">
<feFlood flood-opacity="0" result="BackgroundImageFix"/>
<feColorMatrix in="SourceAlpha" type="matrix" values="0 0 0 0 0 0 0 0 0 0 0 0 0 0 0 0 0 0 127 0" result="hardAlpha"/>
<feOffset dy="4"/>
<feGaussianBlur stdDeviation="2"/>
<feComposite in2="hardAlpha" operator="out"/>
<feColorMatrix type="matrix" values="0 0 0 0 0.448125 0 0 0 0 0.448187 0 0 0 0 0.45 0 0 0 0.15 0"/>
<feBlend mode="normal" in2="BackgroundImageFix" result="effect1_dropShadow"/>
<feBlend mode="normal" in="SourceGraphic" in2="effect1_dropShadow" result="shape"/>
</filter>
<clipPath id="clip0">
<rect width="15.6" height="15.6" fill="white" transform="translate(9.2002 5.20001)"/>
</clipPath>
</defs>
</svg>
