<svg width="81" height="26" viewBox="0 0 81 26" fill="none" xmlns="http://www.w3.org/2000/svg">
<g clip-path="url(#clip0)">
<path d="M29.13 6.13229C28.9694 5.19795 28.7286 4.28041 28.4106 3.39064C28.1045 2.49288 27.7209 1.62573 27.2644 0.799774C27.104 0.512648 26.8615 0.284485 26.5705 0.146931C26.2796 0.00937689 25.9547 -0.0307516 25.6408 0.0321112C24.7431 0.225936 23.8607 0.489416 23.0009 0.820336C22.1403 1.13633 21.3035 1.51816 20.4973 1.96269C20.218 2.12187 19.9931 2.36711 19.8537 2.66459C19.7142 2.96207 19.667 3.29716 19.7186 3.62368C19.8765 4.56212 20.1165 5.48363 20.4357 6.37675C20.7428 7.27409 21.1263 8.14115 21.5819 8.96761C21.7441 9.25307 21.9876 9.47917 22.2788 9.61464C22.5701 9.75012 22.8946 9.78828 23.2077 9.72385C24.1002 9.52934 24.9775 9.26586 25.8322 8.93563C26.6938 8.62054 27.5314 8.23868 28.338 7.79327C28.6197 7.6361 28.8473 7.39172 28.9893 7.09408C29.1312 6.79643 29.1804 6.46028 29.13 6.13229Z" fill="#F72A16"/>
<path d="M38.9697 1.66334C38.1327 1.28421 37.2702 0.968844 36.3891 0.719754C35.5123 0.458285 34.6182 0.26432 33.714 0.139438C33.3974 0.100216 33.077 0.163986 32.7968 0.321948C32.5166 0.479911 32.2906 0.724279 32.1498 1.02134C31.7531 1.88 31.4335 2.77482 31.195 3.69445C30.9397 4.60952 30.7666 5.54722 30.678 6.4955C30.6495 6.82582 30.7206 7.15719 30.8814 7.44372C31.0422 7.73025 31.2848 7.95778 31.5756 8.0948C32.4117 8.47369 33.2735 8.78831 34.154 9.0361C35.0312 9.29903 35.9262 9.49376 36.8313 9.6187C37.1482 9.65842 37.4692 9.59489 37.7498 9.4369C38.0304 9.27891 38.2568 9.03426 38.3977 8.7368C38.7924 7.87729 39.112 6.98265 39.3524 6.06369C39.6056 5.14808 39.7787 4.21058 39.8694 3.26264C39.8978 2.93205 39.8264 2.6005 39.6652 2.31394C39.504 2.02738 39.2609 1.8 38.9697 1.66334Z" fill="#FABC22"/>
<path d="M50.735 6.13221C50.5765 5.19738 50.3357 4.27964 50.0156 3.39056C49.7105 2.49241 49.3268 1.62517 48.8694 0.799695C48.7105 0.511125 48.4682 0.281746 48.1768 0.14399C47.8855 0.0062335 47.5598 -0.0329315 47.2459 0.0320321C46.3526 0.226477 45.4746 0.489952 44.6191 0.820257C43.7586 1.13625 42.9218 1.51808 42.1156 1.96261C41.8359 2.12146 41.6105 2.36655 41.4706 2.66406C41.3307 2.96157 41.2832 3.29684 41.3346 3.6236C41.4935 4.56205 41.7343 5.48354 42.054 6.37667C42.3591 7.27482 42.7427 8.14206 43.2001 8.96753C43.3607 9.25401 43.6037 9.48103 43.8949 9.61668C44.1861 9.75232 44.5109 9.78978 44.8237 9.72377C45.717 9.52933 46.595 9.26585 47.4505 8.93555C48.3114 8.62055 49.1483 8.23868 49.954 7.79319C50.2337 7.63434 50.4591 7.38925 50.599 7.09174C50.7388 6.79423 50.7864 6.45896 50.735 6.13221Z" fill="#06C92E"/>
<path d="M60.5785 1.66334C59.7413 1.28455 58.8789 0.969197 57.9979 0.719754C57.1205 0.458014 56.2256 0.264046 55.3206 0.139438C55.004 0.100216 54.6836 0.163986 54.4034 0.321948C54.1232 0.479911 53.8972 0.724279 53.7564 1.02134C53.3599 1.88034 53.0396 2.77508 52.7994 3.69445C52.5462 4.61006 52.3732 5.54755 52.2824 6.4955C52.2541 6.82608 52.3255 7.15764 52.4867 7.4442C52.6479 7.73076 52.891 7.95813 53.1822 8.0948C54.018 8.47444 54.8799 8.78907 55.7606 9.0361C56.6378 9.29925 57.5327 9.49399 58.4379 9.6187C58.7545 9.65792 59.0749 9.59415 59.3551 9.43619C59.6353 9.27823 59.8613 9.03386 60.0021 8.7368C60.3988 7.87814 60.7184 6.98331 60.9568 6.06369C61.21 5.14808 61.3831 4.21058 61.4738 3.26264C61.5025 2.93257 61.4318 2.60139 61.2714 2.31489C61.111 2.02839 60.8689 1.80071 60.5785 1.66334Z" fill="#00C2FC"/>
<path d="M2.01968 23.9323C2.02056 24.0073 2.007 24.0817 1.97978 24.1511C1.95257 24.2206 1.91225 24.2836 1.86121 24.3366C1.81016 24.3897 1.74942 24.4315 1.68256 24.4598C1.6157 24.4881 1.54407 24.5021 1.47189 24.5012H0.547908C0.475633 24.5028 0.403806 24.4891 0.336843 24.4608C0.26988 24.4325 0.209194 24.3903 0.158517 24.3367C0.106962 24.2841 0.0663166 24.2211 0.0390773 24.1515C0.011838 24.082 -0.00141929 24.0074 0.000120251 23.9323V21.4763C-0.00141929 21.4012 0.011838 21.3266 0.0390773 21.2571C0.0663166 21.1875 0.106962 21.1245 0.158517 21.0719C0.209194 21.0183 0.26988 20.9761 0.336843 20.9478C0.403806 20.9195 0.475633 20.9058 0.547908 20.9074H0.838302C0.972857 20.7178 1.08374 20.5113 1.16829 20.2928C1.26972 20.037 1.35209 19.7735 1.41469 19.5046C1.48443 19.213 1.5395 18.9179 1.57969 18.6204C1.62368 18.3165 1.65448 18.0126 1.67428 17.7065L1.73148 16.8223C1.73947 16.6685 1.80405 16.5237 1.91188 16.4179C2.01842 16.3105 2.16161 16.2514 2.31007 16.2534H6.36458C6.43685 16.2518 6.50868 16.2656 6.57564 16.2939C6.64261 16.3222 6.70329 16.3644 6.75397 16.4179C6.80624 16.4701 6.84751 16.533 6.87515 16.6026C6.9028 16.6722 6.91622 16.747 6.91457 16.8223V20.9051H7.44695C7.51923 20.9035 7.59106 20.9173 7.65802 20.9455C7.72498 20.9738 7.78567 21.0161 7.83635 21.0696C7.88889 21.122 7.93032 21.1853 7.95798 21.2553C7.98563 21.3254 7.9989 21.4006 7.99694 21.4763V23.9346C7.99859 24.0099 7.98517 24.0847 7.95753 24.1543C7.92988 24.2239 7.88862 24.2868 7.83635 24.339C7.78567 24.3926 7.72498 24.4348 7.65802 24.4631C7.59106 24.4913 7.51923 24.5051 7.44695 24.5035H6.52298C6.45079 24.5044 6.37916 24.4903 6.3123 24.4621C6.24544 24.4338 6.1847 24.3919 6.13366 24.3389C6.08261 24.2859 6.0423 24.2228 6.01508 24.1534C5.98787 24.084 5.9743 24.0096 5.97519 23.9346V23.0047H2.01528L2.01968 23.9323ZM4.74761 18.3554H3.78184L3.75324 18.6249C3.70425 19.1027 3.61219 19.5747 3.47824 20.0346C3.39147 20.3408 3.26569 20.6335 3.10425 20.9051H4.74761V18.3554Z" fill="#0073E6"/>
<path d="M10.8107 20.3796C10.8563 20.5301 10.9302 20.6698 11.028 20.7906C11.1257 20.9113 11.2455 21.0108 11.3805 21.0833C11.6728 21.2393 11.9978 21.3178 12.3265 21.3118C12.5392 21.3134 12.7518 21.2981 12.9623 21.2661C13.1446 21.2366 13.3231 21.186 13.4946 21.1153C13.5969 21.0767 13.7048 21.0566 13.8136 21.0559C13.9182 21.0507 14.022 21.0778 14.1117 21.134C14.2014 21.1901 14.273 21.2727 14.3174 21.3712L14.5374 21.851C14.5772 21.9347 14.5968 22.0272 14.5946 22.1206C14.6004 22.2192 14.5804 22.3176 14.5366 22.4053C14.4928 22.493 14.427 22.5668 14.346 22.6187C13.9894 22.8325 13.6026 22.9867 13.1998 23.0756C12.8335 23.1468 12.4616 23.182 12.0889 23.1807C11.5917 23.1885 11.0974 23.1018 10.6303 22.9248C10.2181 22.7717 9.84275 22.5276 9.53017 22.2093C9.21759 21.891 8.97521 21.5061 8.81974 21.081C8.65118 20.6178 8.56978 20.1253 8.57995 19.6303C8.57761 19.1606 8.66354 18.6949 8.83294 18.2594C8.99581 17.8386 9.23562 17.4546 9.53913 17.1285C9.85099 16.7973 10.2255 16.5367 10.6391 16.3631C11.1035 16.1702 11.5997 16.0732 12.0999 16.0775C12.5067 16.0781 12.9099 16.1555 13.29 16.306C13.6641 16.4487 14.0073 16.6669 14.2998 16.948C14.5913 17.2324 14.8267 17.5731 14.9928 17.951C15.1702 18.3609 15.2588 18.8062 15.2524 19.2556C15.2568 19.4849 15.2421 19.7143 15.2084 19.941C15.1837 20.0621 15.1201 20.1708 15.028 20.2494C14.9454 20.3354 14.8347 20.3859 14.7178 20.3911L10.8107 20.3796ZM13.0766 18.8809C13.0722 18.6403 12.9765 18.4112 12.8105 18.2434C12.706 18.1405 12.5819 18.0614 12.4463 18.011C12.3107 17.9607 12.1665 17.9402 12.0229 17.951C11.7261 17.9309 11.4316 18.0154 11.1869 18.1909C10.9825 18.3732 10.8303 18.6103 10.7469 18.8763L13.0766 18.8809Z" fill="#0073E6"/>
<path d="M18.2441 23.0025C18.1719 23.0041 18.1 22.9904 18.0331 22.9621C17.9661 22.9338 17.9054 22.8916 17.8547 22.838C17.8025 22.7858 17.7612 22.7229 17.7336 22.6533C17.7059 22.5837 17.6925 22.5089 17.6941 22.4336V18.5062H16.3742C16.3019 18.5078 16.2301 18.494 16.1631 18.4658C16.0961 18.4375 16.0355 18.3953 15.9848 18.3417C15.9328 18.2894 15.8919 18.2265 15.8646 18.1568C15.8373 18.0872 15.8243 18.0125 15.8264 17.9373V16.827C15.8243 16.7518 15.8373 16.6771 15.8646 16.6074C15.8919 16.5378 15.9328 16.4749 15.9848 16.4226C16.0355 16.369 16.0961 16.3268 16.1631 16.2985C16.2301 16.2702 16.3019 16.2565 16.3742 16.2581H21.1877C21.2598 16.2571 21.3315 16.2712 21.3983 16.2995C21.4652 16.3278 21.5259 16.3696 21.577 16.4226C21.628 16.4756 21.6683 16.5387 21.6956 16.6082C21.7228 16.6776 21.7363 16.752 21.7355 16.827V17.9373C21.7363 18.0123 21.7228 18.0867 21.6956 18.1561C21.6683 18.2255 21.628 18.2886 21.577 18.3416C21.5259 18.3946 21.4652 18.4365 21.3983 18.4648C21.3315 18.493 21.2598 18.5071 21.1877 18.5062H19.8677V22.4336C19.868 22.5086 19.8539 22.5829 19.8264 22.6522C19.7988 22.7215 19.7583 22.7845 19.7071 22.8374C19.656 22.8903 19.5952 22.9321 19.5284 22.9605C19.4615 22.9888 19.3899 23.0031 19.3177 23.0025H18.2441Z" fill="#0073E6"/>
<path d="M26.9912 18.4467C26.6838 18.2773 26.3425 18.185 25.9946 18.1771C25.8223 18.1772 25.6513 18.2074 25.4886 18.2662C25.3262 18.3282 25.1768 18.422 25.0486 18.5427C24.912 18.6711 24.8013 18.8264 24.723 18.9996C24.6377 19.1978 24.5956 19.4132 24.5998 19.6302C24.5961 19.8431 24.6413 20.0538 24.7318 20.2448C24.8915 20.5891 25.174 20.8554 25.5194 20.9873C25.6835 21.0504 25.857 21.0829 26.032 21.0833C26.3919 21.0759 26.7423 20.9617 27.0418 20.7543C27.16 20.667 27.3015 20.6199 27.4466 20.6195C27.5322 20.618 27.6169 20.638 27.6935 20.6778C27.7701 20.7176 27.8363 20.7759 27.8866 20.848L28.3266 21.4625C28.401 21.5662 28.4411 21.692 28.441 21.8212C28.4436 21.9148 28.4239 22.0076 28.3836 22.0913C28.3433 22.1751 28.2836 22.2471 28.21 22.301C27.8512 22.6193 27.4345 22.8594 26.9846 23.007C26.6267 23.1127 26.2567 23.168 25.8846 23.1715C25.376 23.1789 24.8702 23.0922 24.3908 22.9156C23.9665 22.7616 23.5782 22.5164 23.2513 22.1959C22.9333 21.8816 22.6867 21.4976 22.5297 21.0719C22.3563 20.6089 22.2704 20.1155 22.2767 19.6188C22.2746 19.15 22.3575 18.685 22.5209 18.248C22.6805 17.827 22.9182 17.4428 23.2205 17.117C23.5329 16.7865 23.9073 16.526 24.3204 16.3516C24.7645 16.1637 25.2402 16.0698 25.7196 16.0752C26.1128 16.0714 26.5052 16.112 26.89 16.1963C27.283 16.2964 27.6556 16.469 27.99 16.7058C28.0831 16.7557 28.1618 16.8305 28.2178 16.9224C28.2739 17.0144 28.3054 17.1202 28.309 17.229C28.3075 17.3311 28.2768 17.4305 28.221 17.5146L27.803 18.2343C27.7556 18.3262 27.6848 18.4028 27.5982 18.4556C27.5117 18.5084 27.4127 18.5354 27.3124 18.5335C27.1996 18.5365 27.0883 18.5064 26.9912 18.4467Z" fill="#0073E6"/>
<path d="M31.8396 19.7811V22.4337C31.8405 22.5086 31.8269 22.583 31.7997 22.6524C31.7725 22.7219 31.7322 22.785 31.6811 22.838C31.6301 22.891 31.5693 22.9329 31.5025 22.9611C31.4356 22.9894 31.364 23.0035 31.2918 23.0025H30.2226C30.1505 23.0035 30.0788 22.9894 30.012 22.9611C29.9451 22.9329 29.8844 22.891 29.8333 22.838C29.7823 22.785 29.742 22.7219 29.7147 22.6524C29.6875 22.583 29.674 22.5086 29.6748 22.4337V16.827C29.674 16.752 29.6875 16.6776 29.7147 16.6082C29.742 16.5387 29.7823 16.4757 29.8333 16.4227C29.8844 16.3696 29.9451 16.3278 30.012 16.2995C30.0788 16.2712 30.1505 16.2572 30.2226 16.2581H31.2918C31.364 16.2572 31.4356 16.2712 31.5025 16.2995C31.5693 16.3278 31.6301 16.3696 31.6811 16.4227C31.7322 16.4757 31.7725 16.5387 31.7997 16.6082C31.8269 16.6776 31.8405 16.752 31.8396 16.827V19.1917L33.5138 16.6282C33.5922 16.5165 33.6936 16.4244 33.8108 16.3586C33.9264 16.2891 34.0577 16.2528 34.1913 16.2535H35.1989C35.2744 16.2513 35.3495 16.2661 35.419 16.2968C35.4885 16.3276 35.5508 16.3736 35.6015 16.4317C35.6962 16.5297 35.753 16.6603 35.7612 16.7989C35.7693 16.9374 35.7281 17.0743 35.6455 17.1834L34.1055 19.2808L34.8117 20.286C34.9955 20.5844 35.2694 20.811 35.5905 20.9303C35.758 20.9521 35.9133 21.0327 36.0305 21.1588C36.1139 21.3089 36.1515 21.4818 36.1383 21.6546V22.5685C36.1368 22.6912 36.0904 22.8088 36.0085 22.8975C35.9301 22.9918 35.823 23.0555 35.7049 23.0779C35.6279 23.0779 35.5553 23.0962 35.4849 23.1008C35.4145 23.1054 35.3463 23.1008 35.2649 23.1008C35.0831 23.0995 34.9018 23.0796 34.7237 23.0414C34.5269 22.9976 34.3372 22.9245 34.1605 22.8243C33.9635 22.7046 33.7823 22.5587 33.6216 22.3902C33.4082 22.1665 33.2173 21.9207 33.0518 21.6569L31.8396 19.7811Z" fill="#0073E6"/>
<path d="M42.4044 23.0025C42.3323 23.0034 42.2606 22.9893 42.1938 22.961C42.1269 22.9328 42.0662 22.8909 42.0151 22.8379C41.9641 22.7849 41.9238 22.7218 41.8966 22.6524C41.8693 22.5829 41.8558 22.5085 41.8567 22.4336V19.4794L39.7931 22.6186C39.7209 22.7246 39.6307 22.8159 39.5269 22.8882C39.4218 22.9597 39.2983 22.9963 39.1727 22.9933H37.9319C37.8594 22.9948 37.7872 22.981 37.7199 22.9528C37.6526 22.9245 37.5915 22.8823 37.5404 22.8288C37.4888 22.7762 37.4482 22.7132 37.4209 22.6436C37.3937 22.5741 37.3804 22.4995 37.382 22.4244V16.8269C37.3804 16.7518 37.3937 16.6772 37.4209 16.6077C37.4482 16.5382 37.4888 16.4751 37.5404 16.4225C37.5915 16.369 37.6526 16.3268 37.7199 16.2986C37.7872 16.2703 37.8594 16.2565 37.9319 16.258H38.9989C39.0711 16.2571 39.1427 16.2712 39.2096 16.2994C39.2765 16.3277 39.3372 16.3696 39.3882 16.4226C39.4393 16.4756 39.4796 16.5387 39.5068 16.6081C39.534 16.6775 39.5476 16.7519 39.5467 16.8269V19.781L41.6125 16.6327C41.6835 16.5281 41.7713 16.4369 41.8721 16.3631C41.9734 16.2907 42.0945 16.2539 42.2174 16.258H43.4736C43.5458 16.2571 43.6174 16.2712 43.6843 16.2994C43.7512 16.3277 43.8119 16.3696 43.8629 16.4226C43.914 16.4756 43.9543 16.5387 43.9815 16.6081C44.0087 16.6775 44.0223 16.7519 44.0214 16.8269V22.4336C44.0223 22.5085 44.0087 22.5829 43.9815 22.6524C43.9543 22.7218 43.914 22.7849 43.8629 22.8379C43.8119 22.8909 43.7512 22.9328 43.6843 22.961C43.6174 22.9893 43.5458 23.0034 43.4736 23.0025H42.4044Z" fill="#0073E6"/>
<path d="M50.6319 23.0025C50.5597 23.0035 50.4881 22.9894 50.4212 22.9611C50.3544 22.9328 50.2936 22.891 50.2426 22.838C50.1915 22.785 50.1512 22.7219 50.124 22.6524C50.0968 22.583 50.0832 22.5086 50.0841 22.4336V19.4795L48.0206 22.6187C47.9476 22.7247 47.8566 22.8161 47.7522 22.8883C47.6479 22.9599 47.5251 22.9965 47.4002 22.9934H46.1572C46.085 22.9943 46.0134 22.9802 45.9465 22.952C45.8797 22.9237 45.8189 22.8818 45.7679 22.8288C45.7168 22.7758 45.6765 22.7127 45.6493 22.6433C45.6221 22.5739 45.6085 22.4995 45.6094 22.4245V16.827C45.6085 16.752 45.6221 16.6776 45.6493 16.6082C45.6765 16.5387 45.7168 16.4757 45.7679 16.4227C45.8189 16.3696 45.8797 16.3278 45.9465 16.2995C46.0134 16.2712 46.085 16.2572 46.1572 16.2581H47.2264C47.2986 16.2572 47.3702 16.2712 47.4371 16.2995C47.5039 16.3278 47.5647 16.3696 47.6157 16.4227C47.6667 16.4757 47.7071 16.5387 47.7343 16.6082C47.7615 16.6776 47.7751 16.752 47.7742 16.827V19.7811L49.8377 16.6328C49.9094 16.5287 49.9971 16.4376 50.0973 16.3632C50.1997 16.2912 50.3213 16.2544 50.4449 16.2581H51.6989C51.7711 16.2572 51.8427 16.2712 51.9096 16.2995C51.9764 16.3278 52.0372 16.3696 52.0882 16.4227C52.1392 16.4757 52.1796 16.5387 52.2068 16.6082C52.234 16.6776 52.2476 16.752 52.2467 16.827V22.4336C52.2476 22.5086 52.234 22.583 52.2068 22.6524C52.1796 22.7219 52.1392 22.785 52.0882 22.838C52.0372 22.891 51.9764 22.9328 51.9096 22.9611C51.8427 22.9894 51.7711 23.0035 51.6989 23.0025H50.6319ZM50.3151 13.3039C50.4364 13.2949 50.5581 13.3131 50.6719 13.3572C50.7858 13.4014 50.8892 13.4705 50.9751 13.5598C51.1273 13.7415 51.2062 13.9773 51.1951 14.2178C51.1907 14.4185 51.1374 14.6148 51.04 14.7882C50.9427 14.9616 50.8045 15.1066 50.6385 15.2094C50.2689 15.479 49.7182 15.6138 48.9863 15.6138C48.179 15.6138 47.5982 15.479 47.2484 15.2094C47.0886 15.102 46.9569 14.9553 46.8648 14.7823C46.7727 14.6093 46.7231 14.4155 46.7204 14.2178C46.7109 13.9775 46.7895 13.7424 46.9404 13.5598C47.1037 13.413 47.3081 13.3244 47.5236 13.3071C47.739 13.2899 47.954 13.3448 48.1372 13.4639C48.2546 13.5735 48.3399 13.7152 48.3836 13.8728C48.4252 13.9995 48.4945 14.1144 48.586 14.2087C48.6986 14.305 48.8431 14.3518 48.9885 14.3389C49.0541 14.3447 49.1201 14.3362 49.1823 14.3137C49.2445 14.2913 49.3014 14.2555 49.3493 14.2087C49.4321 14.1101 49.4963 13.9961 49.5385 13.8728C49.5813 13.7154 49.6659 13.5737 49.7827 13.4639C49.9359 13.3459 50.1249 13.2891 50.3151 13.3039Z" fill="#0073E6"/>
<path d="M58.8884 22.4336C58.8923 22.5095 58.881 22.5855 58.8553 22.6567C58.8296 22.7278 58.7899 22.7927 58.7388 22.8472C58.6877 22.9007 58.6266 22.9428 58.5593 22.9711C58.492 22.9994 58.4198 23.0132 58.3472 23.0117H57.2802C57.2081 23.0126 57.1364 22.9985 57.0696 22.9702C57.0027 22.942 56.942 22.9001 56.8909 22.8471C56.8399 22.7941 56.7996 22.731 56.7724 22.6616C56.7451 22.5921 56.7316 22.5177 56.7325 22.4428V16.827C56.7316 16.752 56.7451 16.6776 56.7724 16.6082C56.7996 16.5387 56.8399 16.4756 56.8909 16.4226C56.942 16.3696 57.0027 16.3278 57.0696 16.2995C57.1364 16.2712 57.2081 16.2571 57.2802 16.2581H58.2988C58.4266 16.261 58.5521 16.2935 58.6663 16.3532C58.7805 16.4129 58.8804 16.4982 58.9588 16.603L60.6176 18.5519L62.1575 16.6168C62.2381 16.5123 62.3356 16.4234 62.4457 16.354C62.5555 16.289 62.6801 16.2558 62.8065 16.2581H63.7723C63.8446 16.2565 63.9164 16.2702 63.9834 16.2985C64.0503 16.3268 64.111 16.369 64.1617 16.4226C64.214 16.4747 64.2552 16.5376 64.2829 16.6072C64.3105 16.6769 64.3239 16.7517 64.3223 16.827V22.4336C64.3239 22.5089 64.3105 22.5837 64.2829 22.6533C64.2552 22.7229 64.214 22.7858 64.1617 22.838C64.111 22.8916 64.0503 22.9338 63.9834 22.9621C63.9164 22.9904 63.8446 23.0041 63.7723 23.0025H62.6987C62.6266 23.0034 62.5549 22.9894 62.4881 22.9611C62.4212 22.9328 62.3605 22.891 62.3094 22.8379C62.2584 22.7849 62.2181 22.7219 62.1908 22.6524C62.1636 22.583 62.1501 22.5086 62.1509 22.4336V19.692L60.9234 21.1313C60.8771 21.1881 60.8195 21.2337 60.7545 21.2649C60.6895 21.296 60.6188 21.3121 60.5472 21.3118C60.4773 21.3123 60.4081 21.298 60.3438 21.2697C60.2795 21.2414 60.2214 21.1998 60.1732 21.1473L58.8884 19.692V22.4336Z" fill="#0073E6"/>
<path d="M70.9239 23.0025C70.8517 23.0034 70.7801 22.9893 70.7132 22.961C70.6464 22.9328 70.5856 22.8909 70.5346 22.8379C70.4835 22.7849 70.4432 22.7218 70.416 22.6524C70.3888 22.5829 70.3752 22.5085 70.3761 22.4336V19.4794L68.3126 22.6186C68.2398 22.7241 68.1497 22.8153 68.0464 22.8882C67.9413 22.9597 67.8178 22.9963 67.6922 22.9933H66.4514C66.379 22.9946 66.3072 22.9807 66.24 22.9526C66.1729 22.9244 66.1119 22.8826 66.0606 22.8296C66.0094 22.7765 65.9689 22.7134 65.9415 22.6438C65.9142 22.5742 65.9005 22.4996 65.9014 22.4244V16.8269C65.9005 16.7517 65.9142 16.6772 65.9415 16.6076C65.9689 16.538 66.0094 16.4748 66.0606 16.4218C66.1119 16.3687 66.1729 16.3269 66.24 16.2988C66.3072 16.2706 66.379 16.2568 66.4514 16.258H67.5184C67.5906 16.2571 67.6622 16.2712 67.729 16.2994C67.7959 16.3277 67.8566 16.3696 67.9077 16.4226C67.9587 16.4756 67.9991 16.5387 68.0263 16.6081C68.0535 16.6775 68.067 16.7519 68.0662 16.8269V19.781L70.1319 16.6327C70.2049 16.5275 70.295 16.4362 70.3981 16.3631C70.4995 16.2907 70.6205 16.2539 70.7435 16.258H71.9997C72.0719 16.2571 72.1435 16.2712 72.2104 16.2994C72.2772 16.3277 72.338 16.3696 72.389 16.4226C72.44 16.4756 72.4804 16.5387 72.5076 16.6081C72.5348 16.6775 72.5484 16.7519 72.5475 16.8269V22.4336C72.5484 22.5085 72.5348 22.5829 72.5076 22.6524C72.4804 22.7218 72.44 22.7849 72.389 22.8379C72.338 22.8909 72.2772 22.9328 72.2104 22.961C72.1435 22.9893 72.0719 23.0034 71.9997 23.0025H70.9239Z" fill="#0073E6"/>
<path d="M76.2947 25.4311C76.2956 25.5061 76.282 25.5805 76.2548 25.6499C76.2276 25.7194 76.1873 25.7824 76.1362 25.8355C76.0852 25.8885 76.0244 25.9303 75.9576 25.9586C75.8907 25.9869 75.8191 26.0009 75.7469 26H74.6777C74.6055 26.0009 74.5339 25.9869 74.467 25.9586C74.4002 25.9303 74.3394 25.8885 74.2884 25.8355C74.2373 25.7824 74.197 25.7194 74.1698 25.6499C74.1426 25.5805 74.129 25.5061 74.1299 25.4311V16.8269C74.129 16.752 74.1426 16.6776 74.1698 16.6081C74.197 16.5387 74.2373 16.4756 74.2884 16.4226C74.3394 16.3696 74.4002 16.3277 74.467 16.2995C74.5339 16.2712 74.6055 16.2571 74.6777 16.258H75.8173C75.8802 16.2565 75.9428 16.2682 76.0012 16.2924C76.0597 16.3166 76.1128 16.3529 76.1574 16.399C76.202 16.4451 76.2372 16.5001 76.2608 16.5607C76.2843 16.6213 76.2959 16.6862 76.2947 16.7515C76.5114 16.5503 76.761 16.391 77.0317 16.2809C77.3706 16.1395 77.7334 16.0703 78.0986 16.0775C78.5085 16.0721 78.9147 16.1594 79.2888 16.3334C79.6428 16.4976 79.9565 16.7428 80.2062 17.0508C80.4636 17.3757 80.6619 17.7465 80.7914 18.1452C80.9332 18.5871 81.0038 19.0503 81.0004 19.516C81.0014 20.0094 80.9126 20.4986 80.7386 20.9577C80.5774 21.3887 80.3368 21.783 80.0302 22.1183C79.7189 22.4536 79.3445 22.7188 78.9302 22.8974C78.475 23.0929 77.9862 23.1901 77.4937 23.183C77.2727 23.183 77.052 23.1655 76.8337 23.1304C76.6422 23.1036 76.4551 23.0506 76.2771 22.9728L76.2947 25.4311ZM76.2947 20.8297C76.4357 20.9204 76.5893 20.9882 76.7501 21.0308C76.9322 21.071 77.1183 21.0887 77.3045 21.0833C77.5 21.0995 77.6965 21.0681 77.8783 20.9915C78.0601 20.915 78.2222 20.7954 78.3516 20.6424C78.5811 20.337 78.7009 19.9581 78.6904 19.5709C78.7009 19.211 78.5852 18.8595 78.3648 18.5816C78.2478 18.4437 78.1018 18.3356 77.9382 18.2654C77.7746 18.1953 77.5977 18.1651 77.4211 18.1772C77.2027 18.186 76.9889 18.2442 76.7943 18.3476C76.5998 18.4509 76.4293 18.5971 76.2947 18.7758V20.8297Z" fill="#0073E6"/>
</g>
<defs>
<clipPath id="clip0">
<rect width="81" height="26" fill="white"/>
</clipPath>
</defs>
</svg>
