<svg width="49" height="48" viewBox="0 0 49 48" fill="none" xmlns="http://www.w3.org/2000/svg">
<g filter="url(#filter0_d)">
<circle r="20" transform="matrix(-1 0 0 1 24.0488 20)" fill="#FFF4E6"/>
<path d="M24.0488 15C22.7227 15 21.451 15.5268 20.5133 16.4645C19.5756 17.4021 19.0488 18.6739 19.0488 20C19.0488 21.3261 19.5756 22.5979 20.5133 23.5355C21.451 24.4732 22.7227 25 24.0488 25C25.3749 25 26.6467 24.4732 27.5844 23.5355C28.522 22.5979 29.0488 21.3261 29.0488 20C29.0488 18.6739 28.522 17.4021 27.5844 16.4645C26.6467 15.5268 25.3749 15 24.0488 15Z" fill="#FA8828"/>
<path fill-rule="evenodd" clip-rule="evenodd" d="M24.0488 9C24.314 9 24.5684 9.10536 24.7559 9.29289C24.9435 9.48043 25.0488 9.73478 25.0488 10V11C25.0488 11.2652 24.9435 11.5196 24.7559 11.7071C24.5684 11.8946 24.314 12 24.0488 12C23.7836 12 23.5293 11.8946 23.3417 11.7071C23.1542 11.5196 23.0488 11.2652 23.0488 11V10C23.0488 9.73478 23.1542 9.48043 23.3417 9.29289C23.5293 9.10536 23.7836 9 24.0488 9ZM15.3418 11.293C15.5294 11.1055 15.7837 11.0002 16.0488 11.0002C16.314 11.0002 16.5683 11.1055 16.7558 11.293L18.2558 12.793C18.438 12.9816 18.5388 13.2342 18.5365 13.4964C18.5342 13.7586 18.4291 14.0094 18.2436 14.1948C18.0582 14.3802 17.8074 14.4854 17.5452 14.4877C17.283 14.49 17.0304 14.3892 16.8418 14.207L15.3418 12.707C15.1544 12.5195 15.049 12.2652 15.049 12C15.049 11.7348 15.1544 11.4805 15.3418 11.293ZM32.7558 11.293C32.9433 11.4805 33.0486 11.7348 33.0486 12C33.0486 12.2652 32.9433 12.5195 32.7558 12.707L31.2558 14.207C31.1636 14.3025 31.0532 14.3787 30.9312 14.4311C30.8092 14.4835 30.678 14.5111 30.5452 14.5123C30.4124 14.5134 30.2808 14.4881 30.1579 14.4378C30.035 14.3875 29.9233 14.3133 29.8294 14.2194C29.7355 14.1255 29.6613 14.0139 29.611 13.891C29.5607 13.7681 29.5354 13.6364 29.5366 13.5036C29.5377 13.3708 29.5653 13.2396 29.6177 13.1176C29.6701 12.9956 29.7463 12.8852 29.8418 12.793L31.3418 11.293C31.5294 11.1055 31.7837 11.0002 32.0488 11.0002C32.314 11.0002 32.5683 11.1055 32.7558 11.293ZM13.0488 20C13.0488 19.7348 13.1542 19.4804 13.3417 19.2929C13.5293 19.1054 13.7836 19 14.0488 19H15.0488C15.314 19 15.5684 19.1054 15.7559 19.2929C15.9435 19.4804 16.0488 19.7348 16.0488 20C16.0488 20.2652 15.9435 20.5196 15.7559 20.7071C15.5684 20.8946 15.314 21 15.0488 21H14.0488C13.7836 21 13.5293 20.8946 13.3417 20.7071C13.1542 20.5196 13.0488 20.2652 13.0488 20ZM32.0488 20C32.0488 19.7348 32.1542 19.4804 32.3417 19.2929C32.5293 19.1054 32.7836 19 33.0488 19H34.0488C34.314 19 34.5684 19.1054 34.7559 19.2929C34.9435 19.4804 35.0488 19.7348 35.0488 20C35.0488 20.2652 34.9435 20.5196 34.7559 20.7071C34.5684 20.8946 34.314 21 34.0488 21H33.0488C32.7836 21 32.5293 20.8946 32.3417 20.7071C32.1542 20.5196 32.0488 20.2652 32.0488 20ZM18.2558 25.793C18.4433 25.9805 18.5486 26.2348 18.5486 26.5C18.5486 26.7652 18.4433 27.0195 18.2558 27.207L16.7558 28.707C16.5672 28.8892 16.3146 28.99 16.0524 28.9877C15.7902 28.9854 15.5394 28.8802 15.354 28.6948C15.1686 28.5094 15.0634 28.2586 15.0612 27.9964C15.0589 27.7342 15.1597 27.4816 15.3418 27.293L16.8418 25.793C17.0294 25.6055 17.2837 25.5002 17.5488 25.5002C17.814 25.5002 18.0683 25.6055 18.2558 25.793ZM29.8418 25.793C30.0294 25.6055 30.2837 25.5002 30.5488 25.5002C30.814 25.5002 31.0683 25.6055 31.2558 25.793L32.7558 27.293C32.938 27.4816 33.0388 27.7342 33.0365 27.9964C33.0342 28.2586 32.9291 28.5094 32.7436 28.6948C32.5582 28.8802 32.3074 28.9854 32.0452 28.9877C31.783 28.99 31.5304 28.8892 31.3418 28.707L29.8418 27.207C29.6544 27.0195 29.549 26.7652 29.549 26.5C29.549 26.2348 29.6544 25.9805 29.8418 25.793ZM24.0488 28C24.314 28 24.5684 28.1054 24.7559 28.2929C24.9435 28.4804 25.0488 28.7348 25.0488 29V30C25.0488 30.2652 24.9435 30.5196 24.7559 30.7071C24.5684 30.8946 24.314 31 24.0488 31C23.7836 31 23.5293 30.8946 23.3417 30.7071C23.1542 30.5196 23.0488 30.2652 23.0488 30V29C23.0488 28.7348 23.1542 28.4804 23.3417 28.2929C23.5293 28.1054 23.7836 28 24.0488 28Z" fill="#FA8828"/>
</g>
<defs>
<filter id="filter0_d" x="0.0488281" y="0" width="48" height="48" filterUnits="userSpaceOnUse" color-interpolation-filters="sRGB">
<feFlood flood-opacity="0" result="BackgroundImageFix"/>
<feColorMatrix in="SourceAlpha" type="matrix" values="0 0 0 0 0 0 0 0 0 0 0 0 0 0 0 0 0 0 127 0" result="hardAlpha"/>
<feOffset dy="4"/>
<feGaussianBlur stdDeviation="2"/>
<feComposite in2="hardAlpha" operator="out"/>
<feColorMatrix type="matrix" values="0 0 0 0 0.702744 0 0 0 0 0.689427 0 0 0 0 0.904167 0 0 0 0.25 0"/>
<feBlend mode="normal" in2="BackgroundImageFix" result="effect1_dropShadow"/>
<feBlend mode="normal" in="SourceGraphic" in2="effect1_dropShadow" result="shape"/>
</filter>
</defs>
</svg>
