<svg width="72" height="22" viewBox="0 0 72 22" fill="none" xmlns="http://www.w3.org/2000/svg">
<g clip-path="url(#clip0)">
<path d="M8.91298 16.445C6.18963 16.775 3.91089 14.52 4.24436 11.88C4.46668 10.065 5.96731 8.58 7.8014 8.36C10.5248 8.03 12.8035 10.285 12.47 12.925C12.2477 14.74 10.8027 16.225 8.91298 16.445ZM9.19088 4.78502C4.24436 4.29002 0.1871 8.36 0.687311 13.2C1.07636 16.775 4.02205 19.69 7.63466 20.02C12.5256 20.515 16.6385 16.445 16.1382 11.605C15.7492 8.03 12.8035 5.11502 9.19088 4.78502Z" fill="#0054FF"/>
<path d="M20.2509 5.06006C19.1393 5.06006 18.25 6.05009 18.4724 7.20509C18.6391 8.03009 19.4728 8.63509 20.3065 8.63509H25.3641L17.5275 18.9201C17.2496 19.2501 17.5275 19.7451 17.9166 19.7451H30.2551C31.1444 19.7451 31.9225 19.14 32.0892 18.315C32.3115 17.16 31.4223 16.1701 30.3107 16.1701H24.1414L31.978 5.88509C32.2559 5.55509 31.978 5.06006 31.5334 5.06006H20.2509Z" fill="#0054FF"/>
<path d="M69.5499 5.00503C68.7162 5.17003 68.1604 5.94001 68.1604 6.82001V12.7601L58.3229 5.06003C57.9895 4.78503 57.4893 5.06003 57.4893 5.44503V17.765C57.4893 18.59 58.045 19.36 58.9343 19.58C60.1015 19.8 61.1575 18.9201 61.1575 17.8201V11.825L70.9949 19.525C71.3284 19.8 71.8286 19.525 71.8286 19.14V6.76501C71.773 5.66501 70.717 4.78503 69.5499 5.00503Z" fill="#0054FF"/>
<path d="M44.0391 4.67505C38.0365 4.67505 33.2012 8.14005 33.2012 12.375C33.2012 16.61 38.0921 20.02 44.0946 20.02C50.0972 20.02 54.9325 16.555 54.9325 12.32C54.877 8.08505 50.0416 4.67505 44.0391 4.67505ZM44.0391 8.25005C48.2075 8.25005 51.2643 10.395 51.2643 12.32C51.2643 14.245 48.1519 16.445 44.0391 16.445C39.8706 16.445 36.8138 14.3 36.8138 12.375C36.8138 10.395 39.9262 8.25005 44.0391 8.25005Z" fill="#0054FF"/>
<path d="M51.0977 13.145C50.3752 14.795 47.5962 16.39 44.0392 16.39C40.4821 16.39 37.7032 14.795 36.9806 13.145H33.2568C33.8126 16.995 38.4813 20.02 44.0947 19.965C49.7082 19.965 54.2657 16.94 54.877 13.145H51.0977Z" fill="#0054FF"/>
</g>
<defs>
<clipPath id="clip0">
<rect width="71.1411" height="22" fill="white" transform="translate(0.631836)"/>
</clipPath>
</defs>
</svg>
