<svg width="65" height="66" viewBox="0 0 65 66" fill="none" xmlns="http://www.w3.org/2000/svg">
<path opacity="0.5" d="M31.72 65.04C30.92 65.04 30.28 64.8 29.8 64.32C29.32 63.84 29.08 63.2 29.08 62.4V36.12H3.04C2.24 36.12 1.6 35.88 1.12 35.4C0.64 34.92 0.4 34.28 0.4 33.48V31.8C0.4 31 0.64 30.36 1.12 29.88C1.6 29.4 2.24 29.16 3.04 29.16H29.08V3.6C29.08 2.8 29.32 2.16 29.8 1.67999C30.28 1.2 30.92 0.959996 31.72 0.959996H33.52C34.32 0.959996 34.96 1.2 35.44 1.67999C35.92 2.16 36.16 2.8 36.16 3.6V29.16H62.32C63.12 29.16 63.76 29.4 64.24 29.88C64.72 30.36 64.96 31 64.96 31.8V33.48C64.96 34.28 64.72 34.92 64.24 35.4C63.76 35.88 63.12 36.12 62.32 36.12H36.16V62.4C36.16 63.2 35.92 63.84 35.44 64.32C34.96 64.8 34.32 65.04 33.52 65.04H31.72Z" fill="url(#paint0_angular)"/>
<defs>
<radialGradient id="paint0_angular" cx="0" cy="0" r="1" gradientUnits="userSpaceOnUse" gradientTransform="translate(25.4603 41.05) rotate(143.215) scale(56.8618 27.5154)">
<stop offset="0.40625" stop-color="#FFCC03" stop-opacity="0.74"/>
<stop offset="0.463542" stop-color="#6BDBFD" stop-opacity="0.5"/>
</radialGradient>
</defs>
</svg>
